<svg width="46" height="46" viewBox="0 0 46 46" fill="none" xmlns="http://www.w3.org/2000/svg">
<path d="M25.57 16.3429C24.6464 15.5933 23.2871 15.7252 22.5378 16.6489C21.7787 17.5738 21.9134 18.9305 22.8388 19.6852C23.8549 20.5162 24.4389 21.7238 24.4389 22.9978C24.4389 24.2727 23.8549 25.4793 22.8388 26.3104C21.9152 27.0656 21.7805 28.4244 22.5356 29.3453C22.9595 29.8675 23.5795 30.1371 24.203 30.1371C24.6832 30.1371 25.1688 29.977 25.5677 29.6514C27.5919 27.9946 28.7517 25.5724 28.7517 22.9983C28.7517 20.4242 27.5914 18.0051 25.57 16.3429ZM31.0054 9.62251C30.0872 8.87284 28.7288 9.00195 27.9706 9.92286C27.2153 10.8438 27.3501 12.2022 28.271 12.9578C31.3148 15.4537 33.0605 19.0835 33.0605 22.9217C33.0605 26.7599 31.3139 30.3869 28.271 32.8855C27.3501 33.6408 27.2153 34.9996 27.9706 35.9205C28.3973 36.4399 29.0145 36.7094 29.638 36.7094C30.1209 36.7094 30.6038 36.5494 31.0054 36.2208C35.0573 32.9823 37.3752 28.1306 37.3752 22.9196C37.3752 17.7086 35.0573 13.0187 31.0054 9.62251ZM36.5127 2.97845C35.5945 2.22878 34.2361 2.36076 33.4779 3.27889C32.7226 4.19981 32.8574 5.55827 33.7783 6.31387C38.8037 10.4311 41.6876 16.5136 41.6876 22.9196C41.6876 29.3256 38.8046 35.489 33.7761 39.6039C32.8553 40.3591 32.7205 41.7179 33.4757 42.6389C33.9025 43.1582 34.5197 43.4278 35.1432 43.4278C35.6261 43.4278 36.109 43.2678 36.5106 42.9392C42.5411 38.0765 46 30.7811 46 22.9196C46 15.0581 42.5411 7.91994 36.5127 2.97845ZM13.5941 15.6871C14.4745 15.7769 15.4628 15.2289 15.8132 14.3394L18.8453 6.75824C19.2272 5.78162 18.7869 4.59117 17.9873 4.12038L11.9257 0.331607C11.0695 -0.205578 9.96447 -0.0802886 9.24573 0.636183C-3.08236 12.9648 -3.08146 33.0362 9.24573 45.363C9.96285 46.0803 11.0623 46.2056 11.9185 45.6686L17.981 41.878C18.8593 41.3296 19.2298 40.2186 18.8433 39.2456L15.8132 31.6705C15.4587 30.7754 14.5428 30.2231 13.5914 30.3256L8.8082 30.803C7.08863 25.7587 7.08863 20.2512 8.8109 15.2109L13.5941 15.6871Z" fill="#1797B0"/>
</svg>
