<svg width="58" height="58" viewBox="0 0 58 58" fill="none" xmlns="http://www.w3.org/2000/svg">
<rect width="58" height="58" rx="8" fill="#1797B0"/>
<path d="M10 18.2857C10 15.9185 11.9398 14 14.3333 14H44.6667C47.0568 14 49 15.9185 49 18.2857V39.7143C49 42.0781 47.0568 44 44.6667 44H14.3333C11.9398 44 10 42.0781 10 39.7143V18.2857ZM20.8333 29C20.8333 27.8147 19.8651 26.8571 18.6667 26.8571C17.4682 26.8571 16.5 27.8147 16.5 29C16.5 30.1853 17.4682 31.1429 18.6667 31.1429C19.8651 31.1429 20.8333 30.1853 20.8333 29ZM20.8333 22.5714C20.8333 21.3862 19.8651 20.4286 18.6667 20.4286C17.4682 20.4286 16.5 21.3862 16.5 22.5714C16.5 23.7567 17.4682 24.7143 18.6667 24.7143C19.8651 24.7143 20.8333 23.7567 20.8333 22.5714ZM20.8333 35.4286C20.8333 34.2433 19.8651 33.2857 18.6667 33.2857C17.4682 33.2857 16.5 34.2433 16.5 35.4286C16.5 36.6138 17.4682 37.5714 18.6667 37.5714C19.8651 37.5714 20.8333 36.6138 20.8333 35.4286ZM25.1667 20.9643C24.2661 20.9643 23.5417 21.6808 23.5417 22.5714C23.5417 23.4621 24.2661 24.1786 25.1667 24.1786H40.3333C41.2339 24.1786 41.9583 23.4621 41.9583 22.5714C41.9583 21.6808 41.2339 20.9643 40.3333 20.9643H25.1667ZM25.1667 27.3929C24.2661 27.3929 23.5417 28.1094 23.5417 29C23.5417 29.8906 24.2661 30.6071 25.1667 30.6071H40.3333C41.2339 30.6071 41.9583 29.8906 41.9583 29C41.9583 28.1094 41.2339 27.3929 40.3333 27.3929H25.1667ZM25.1667 33.8214C24.2661 33.8214 23.5417 34.5379 23.5417 35.4286C23.5417 36.3192 24.2661 37.0357 25.1667 37.0357H40.3333C41.2339 37.0357 41.9583 36.3192 41.9583 35.4286C41.9583 34.5379 41.2339 33.8214 40.3333 33.8214H25.1667Z" fill="white"/>
</svg>
