<svg width="24" height="24" viewBox="0 0 24 24" fill="none" xmlns="http://www.w3.org/2000/svg">
<path d="M12 23.9999C18.6274 23.9999 24 18.6273 24 11.9999C24 5.37246 18.6274 -0.00012207 12 -0.00012207C5.37258 -0.00012207 0 5.37246 0 11.9999C0 18.6273 5.37258 23.9999 12 23.9999Z" fill="#FF6A1C"/>
<path d="M9.74095 18.5447L4.88746 14.0322C4.28579 13.4773 4.25236 12.5414 4.80724 11.9397C5.36211 11.338 6.29805 11.3046 6.89972 11.8595L9.761 14.5202L17.7565 7.26004C18.3649 6.71185 19.3008 6.75196 19.849 7.36032C20.3972 7.96868 20.3571 8.90461 19.7487 9.4528L9.74095 18.5447Z" fill="#F7F7F7"/>
</svg>
