<svg width="63" height="43" viewBox="0 0 63 43" fill="none" xmlns="http://www.w3.org/2000/svg">
<path d="M14.175 43C6.34627 43 0 36.8092 0 29.1786C0 23.1509 3.95423 18.0254 9.46969 16.1346C9.45689 15.8754 9.45 15.6163 9.45 15.3571C9.45 6.87232 16.4981 0 25.2 0C31.0373 0 36.1266 3.09542 38.8533 7.69777C40.3495 6.63237 42.1608 6.14286 44.1 6.14286C49.3172 6.14286 53.55 10.1837 53.55 15.3571C53.55 16.5281 53.3236 17.6415 52.92 18.6781C58.6687 19.8107 63 24.773 63 30.7143C63 37.5002 57.3595 43 50.4 43H14.175ZM21.9516 22.1719C21.0361 23.0741 21.0361 24.533 21.9516 25.3489C22.8769 26.3279 24.3731 26.3279 25.2098 25.3489L29.1375 21.6824V34.5536C29.1375 35.8301 30.1908 36.8571 31.5 36.8571C32.8092 36.8571 33.8625 35.8301 33.8625 34.5536V21.6824L37.7016 25.3489C38.6269 26.3279 40.1231 26.3279 40.9598 25.3489C41.9639 24.533 41.9639 23.0741 40.9598 22.1719L33.0848 14.4933C32.2481 13.6007 30.7519 13.6007 29.8266 14.4933L21.9516 22.1719Z" fill="#1797B0"/>
</svg>
