<svg width="158" height="158" viewBox="0 0 158 158" fill="none" xmlns="http://www.w3.org/2000/svg">
<path d="M32.0666 102.606C32.0666 102.606 32.0667 102.186 32.4886 101.557C32.6995 100.927 33.1214 99.8782 33.9652 98.8291C35.4418 96.521 38.3951 93.5835 43.2469 92.1147C45.5673 91.4852 48.3096 91.0656 51.2628 91.6951C54.2161 92.3245 57.1694 93.5835 59.4898 95.6817C62.0211 97.78 63.9197 100.927 64.7635 104.285C65.8182 107.642 65.3963 111.628 64.1306 115.196C62.654 118.763 60.1226 121.7 57.1693 123.589C54.2161 125.477 50.63 126.316 47.2549 126.316C43.8797 126.316 40.9264 125.057 38.3951 123.589C35.8637 122.12 34.1761 120.021 32.9104 117.713C30.3791 113.307 30.3791 109.111 30.801 106.593C31.0119 105.334 31.2229 104.285 31.6448 103.655C32.0667 103.026 32.0666 102.606 32.0666 102.606C32.2776 102.606 31.6448 104.075 31.2229 106.593C31.0119 109.111 31.2229 113.307 33.5433 117.294C34.809 119.392 36.4966 121.28 39.0279 122.749C41.3484 124.218 44.3016 125.267 47.4658 125.267C50.63 125.267 53.7942 124.638 56.7475 122.749C59.7007 121.071 62.0212 118.133 63.2869 114.986C64.5525 111.628 64.7635 108.061 63.9197 104.704C63.0759 101.347 61.1774 98.6193 58.857 96.521C56.5365 94.4228 53.7942 93.1638 51.0519 92.5343C48.3096 91.9049 45.7782 92.1147 43.4578 92.7442C38.8169 94.0031 35.8637 96.7309 34.3871 98.8291C32.6995 101.137 32.2776 102.606 32.0666 102.606Z" fill="#E0E0E0"/>
<path d="M16.2478 86.2396C16.2478 86.2396 16.0369 86.2396 15.615 86.2396C15.1931 86.2396 14.5603 86.0298 13.7165 86.0298C12.0289 85.82 9.70844 85.4003 6.54423 84.9807L6.75519 84.7708C5.27856 88.5477 3.38008 93.5835 1.05966 99.4586L1.05966 99.039C3.38008 100.718 6.12236 102.396 9.07562 104.494L9.28658 104.704V104.914C8.86469 108.062 8.8647 111.629 9.49754 115.196V115.405L9.28658 115.615C6.96617 117.294 4.22383 119.392 1.48152 121.281L1.69248 120.861C3.591 125.477 5.70047 130.303 8.02089 135.339L7.59897 135.129C10.5522 134.5 13.7164 134.08 17.0916 133.45H17.3025L17.5135 133.66C19.412 136.178 21.9434 138.696 24.8967 140.794L25.1076 141.004V141.214C24.6857 144.152 24.0529 147.299 23.631 150.656L23.42 150.027C28.0608 151.915 33.1236 153.803 38.1863 155.902L37.5535 156.112C39.2411 153.594 41.1396 150.866 43.0381 148.138L43.2491 147.928H43.46C46.6242 148.348 50.2103 148.348 53.7964 147.719H54.2183L54.4293 147.928C56.1168 150.446 58.2263 152.964 60.1249 155.692L59.492 155.482C64.1328 153.594 68.9846 151.286 74.0473 149.187L73.6255 149.817C72.9926 146.879 72.5707 143.732 71.9378 140.375V139.955L72.1488 139.745C74.6802 137.647 77.2115 135.339 79.321 132.401C80.3757 131.982 79.532 132.191 79.9539 132.191H80.1648H80.3757H81.0086L82.2743 132.401L84.5947 132.821C86.2822 133.031 87.7589 133.241 89.2355 133.66L88.6027 134.08C90.5012 129.044 92.6107 124.218 94.5092 119.392L94.7202 120.022C91.9779 118.133 89.4464 116.455 86.7041 114.566L86.4932 114.356V113.937C86.9151 110.579 86.9151 107.012 86.2823 103.655V103.236L86.4932 103.026C89.0246 101.137 91.7669 99.2488 94.2982 97.3604L94.0873 97.9899C91.9778 92.9541 89.8683 88.1281 87.7589 83.5119L88.3917 83.7217C85.2275 84.3512 82.0633 84.9807 78.8991 85.4003H78.6882L78.4772 85.1905C76.3677 82.4628 73.8364 80.1547 71.0941 78.0564L70.8831 77.8466V77.6368C71.305 74.4894 71.9379 71.342 72.3598 68.1946L72.5707 68.6143C67.297 66.516 62.4453 64.6276 57.8044 62.7392L58.2263 62.5294C56.3278 65.2571 54.4293 67.9848 52.7417 70.5027L52.5307 70.7125H52.3198C48.7337 70.2929 45.1476 70.2929 41.9834 70.9224H41.7724L41.5615 70.7125C39.452 67.9848 37.7645 65.2571 35.8659 62.949L36.2878 63.1588C30.5922 65.4669 25.7404 67.5651 21.7325 69.4536L21.9434 69.2438C22.5763 73.0206 23.2091 76.168 23.631 78.6859V78.8957C20.8886 80.994 18.9902 82.8824 17.9354 84.1414C17.3026 84.7708 17.0916 85.1905 16.6697 85.6102C16.4588 86.2396 16.2478 86.2396 16.2478 86.2396C16.2478 86.2396 16.4588 86.0298 16.6697 85.6102C16.8807 85.1905 17.3026 84.7708 17.9354 84.1414C18.9902 82.8824 20.6777 80.7842 23.631 78.6859V78.8957C23.2091 76.3778 22.5762 73.2304 21.7325 69.4536V69.2438H21.9434C26.1624 67.3553 30.8032 65.4669 36.4987 62.949H36.7097L36.9207 63.1588C38.6082 65.4669 40.5067 67.9848 42.6162 70.9224L42.1943 70.7125C45.3586 70.2929 48.9447 70.0831 52.7417 70.5027L52.3198 70.7125C54.0074 68.1946 55.9059 65.6767 57.8044 62.7392L58.0154 62.5294L58.2263 62.7392C62.8671 64.6276 67.7189 66.516 72.9926 68.6143L73.4145 68.8241V69.2438C72.9926 72.3912 72.3597 75.5385 71.9378 78.6859L71.7269 78.2663C74.4693 80.3645 77.0006 82.6726 79.321 85.6102L78.8991 85.4003C82.0633 84.7709 85.2275 84.1414 88.3917 83.7217H88.8136L89.0246 84.1414C91.134 88.9674 93.2435 93.7934 95.353 98.6193L95.5639 99.039L95.142 99.2488C92.6107 101.137 90.0793 103.026 87.337 104.914L87.548 104.494C87.9699 107.852 88.1808 111.419 87.7589 114.986L87.548 114.566C90.0793 116.455 92.8216 118.133 95.5639 120.022L95.9859 120.231L95.7749 120.651C93.8764 125.477 91.9778 130.303 89.8683 135.339L89.6574 135.758H89.2355C87.7589 135.549 86.0713 135.339 84.5947 134.919L82.2743 134.5L81.0086 134.29H80.3757H80.1648H79.9539C80.1648 134.29 79.5319 134.5 80.3757 134.08C78.2663 137.017 75.7349 139.535 72.9926 141.634L73.2035 141.004C73.8364 144.151 74.4693 147.509 74.8912 150.446V150.866L74.4692 151.076C69.4065 153.174 64.5547 155.272 59.9139 157.371L59.492 157.58L59.281 157.161C57.3825 154.433 55.484 151.915 53.5855 149.397L54.0073 149.607C50.4212 150.236 46.8351 150.236 43.46 149.817L43.8819 149.607C41.9834 152.335 40.0848 155.062 38.3973 157.58L38.1863 158L37.7644 157.79C32.7017 155.692 27.639 153.803 22.9981 151.915L22.5762 151.705V151.286C22.9981 147.928 23.631 144.781 24.0529 141.843L24.2638 142.263C21.3106 140.165 18.7792 137.437 16.6697 134.919L17.0916 135.129C13.7164 135.758 10.5522 136.388 7.59897 136.808H7.17711L6.96615 136.388C4.85668 131.352 2.74721 126.316 0.63774 121.91L0.42678 121.7L0.63774 121.49C3.38005 119.602 5.91144 117.713 8.44281 115.825L8.23185 116.245C7.59901 112.678 7.80994 109.111 8.02089 105.753L8.23185 105.963C5.48954 104.075 2.7472 102.186 0.42678 100.508L0.21582 100.298L0.21582 100.088C2.74719 94.213 4.64575 89.1772 6.12238 85.4003V85.1905H6.33334C9.2866 85.6101 11.8179 86.0298 13.2946 86.4495C14.1384 86.6593 14.5602 86.6593 15.1931 86.8691C16.0369 86.2396 16.2478 86.2396 16.2478 86.2396Z" fill="#E0E0E0"/>
<path d="M32.0645 102.608C32.0645 102.608 32.2755 101.978 32.9083 100.719C33.5411 99.4604 34.8069 97.7818 36.7054 96.1032C38.8149 94.4246 41.7681 92.746 45.5651 92.1165C49.3622 91.4871 54.003 92.3264 57.8001 95.2639C61.8081 97.9916 64.7613 103.027 64.7613 108.903C64.7613 114.568 61.5972 120.863 55.9016 123.8C53.1593 125.269 49.7841 126.108 46.409 125.898C43.0338 125.689 39.6587 124.43 36.9163 122.122C34.174 119.814 32.0645 116.876 31.0098 113.309C30.5879 111.63 30.377 109.742 30.377 107.853C30.377 107.014 30.5879 105.965 30.7988 105.126C30.7988 104.706 31.0098 104.286 31.0098 103.867L31.2207 103.237V102.818V102.608C31.2207 102.398 31.2208 103.027 31.6427 103.027L32.2755 102.818C32.0645 103.447 31.6427 104.077 31.4317 104.916C30.377 108.273 30.7988 112.05 32.0645 115.197C33.3302 118.345 35.6506 121.282 38.6039 122.961C41.5572 124.849 44.7214 125.689 48.0965 125.689C51.2607 125.689 54.4249 124.639 57.1672 122.961C59.6986 121.282 61.8081 118.974 63.0738 116.246C64.3395 113.519 64.9723 110.791 64.7613 107.853C64.5504 102.188 61.3862 97.572 57.5891 94.8443C53.5811 92.1165 49.1513 91.2772 45.3542 91.9067C41.5572 92.5362 38.6039 94.005 36.4944 95.8934C34.385 97.572 33.3302 99.4604 32.6974 100.719C32.2755 101.349 32.0645 101.769 32.0645 102.188C32.2755 102.398 32.2755 102.608 32.0645 102.608C32.0645 102.608 32.0645 102.398 32.2755 101.978C32.4864 101.559 32.4864 101.139 32.9083 100.51C33.5411 99.2506 34.5959 97.3622 36.7054 95.4738C38.8149 93.5853 41.7681 91.9067 45.5651 91.2772C49.3622 90.6478 54.214 91.4871 58.222 94.2148C62.2299 96.9425 65.6051 101.978 65.8161 107.853C66.027 110.791 65.3942 113.729 64.1285 116.666C62.8628 119.394 60.5424 121.912 57.8001 123.8C55.0578 125.689 51.6826 126.738 48.3075 126.738C44.9323 126.738 41.3462 125.898 38.182 124.01C35.2287 122.122 32.6974 119.184 31.2207 115.827C29.7441 112.47 29.5332 108.483 30.5879 104.706C30.7989 103.867 31.0098 103.027 31.4317 102.398L31.6427 101.978L32.0645 102.188C32.4864 102.398 32.4864 102.818 32.4864 102.818V103.027V103.237V103.447V103.867L32.2755 104.496C32.0645 104.916 32.0645 105.336 32.0645 105.755C31.8536 106.594 31.8536 107.434 31.6427 108.273C31.6427 109.952 31.8536 111.63 32.2755 113.309C33.1193 116.666 35.2288 119.604 37.7601 121.702C40.2915 123.8 43.4557 125.059 46.6199 125.269C49.7841 125.479 52.9483 124.849 55.6906 123.381C61.1753 120.443 64.1285 114.778 64.1285 109.322C64.1285 103.867 61.3862 99.0408 57.5891 96.313C53.7921 93.5853 49.3622 92.746 45.7761 93.1657C42.19 93.5853 39.2367 95.2639 37.1272 96.7327C35.0178 98.4113 33.963 100.09 33.1193 101.139C32.4864 101.978 32.2755 102.608 32.0645 102.608Z" fill="#E0E0E0"/>
<path d="M16.2429 86.2439C15.3991 86.0341 12.6568 85.6144 6.53931 84.7751H6.75027C5.27364 88.552 3.16418 93.5878 0.632816 99.6727V99.4629C3.16418 101.142 5.69552 103.03 8.64878 104.918L8.22692 105.128C8.22692 105.128 8.22691 104.918 8.01596 104.918H8.43788C8.01599 108.066 8.01594 111.633 8.64878 115.2H8.22692C8.22692 115.2 8.22694 114.99 8.43788 114.99L8.85974 115.2C6.32837 117.088 3.58609 118.977 0.843776 121.075V120.655C2.95325 125.481 5.06273 130.307 7.38315 135.763L6.96123 135.553C9.91449 134.923 13.2897 134.294 16.6648 133.664V134.294C16.4539 134.294 16.4538 134.294 16.2429 134.084L16.6648 133.664C18.5633 136.182 21.0947 138.7 24.048 140.799L23.4151 141.218C23.4151 141.008 23.2042 141.008 23.2042 140.799H23.837C23.4151 143.736 22.7822 147.093 22.3603 150.66L22.1494 150.241C27.0012 152.129 32.2749 154.227 37.5486 156.326L37.1266 156.535C38.8142 154.018 40.7128 151.29 42.8222 148.352L43.2442 148.982C43.0332 148.982 43.0332 149.192 42.8222 149.192L42.6113 148.352C45.7755 148.772 49.3616 148.772 52.9477 148.142V148.982C52.7367 148.982 52.7368 148.772 52.5258 148.772L52.9477 148.142C54.8462 150.66 56.7448 153.388 58.8542 156.116L58.4323 155.906C63.0731 153.808 68.3469 151.709 73.8315 149.401L73.6205 149.821C72.9877 146.883 72.3549 143.526 71.722 139.959H72.5658C72.5658 140.169 72.3548 140.169 72.3548 140.379L71.722 139.749C74.2534 137.861 76.7847 135.343 78.8942 132.406L79.527 133.035C79.3161 133.035 79.3161 133.245 79.1052 133.245L78.8942 132.406C81.8475 132.825 85.4335 133.455 88.8087 133.874L88.3868 134.084C90.2853 129.258 92.3948 124.013 94.5043 118.557L94.7152 119.187C92.1839 117.508 89.2306 115.619 86.4883 113.521L87.3321 112.892C87.3321 113.102 87.5431 113.102 87.5431 113.311L86.4883 113.521C86.9102 110.374 86.9102 106.807 86.2774 103.24L87.3321 103.45C87.3321 103.659 87.1211 103.659 87.1211 103.869L86.2774 103.24C88.8087 101.351 91.551 99.4629 94.2933 97.3646L94.0824 97.9941C91.9729 93.378 89.8635 88.1323 87.5431 82.8867L88.1759 83.0965C85.2226 83.726 81.8474 84.3555 78.4723 84.985V83.9358C78.6832 83.9358 78.6833 83.9358 78.8942 84.1456L78.2613 84.985C76.3628 82.467 73.6205 79.9491 70.8782 77.8509L71.722 77.2214C71.722 77.4312 71.9329 77.4312 71.9329 77.6411L70.8782 77.8509C71.3001 74.9133 71.9329 71.5561 72.3548 67.9891L72.7767 68.6186C67.925 66.7301 62.6513 64.6319 57.3776 62.5336L58.0105 62.3238C56.3229 64.8417 54.4243 67.5694 52.5258 70.507L51.8929 69.6677C51.8929 69.6677 52.1039 69.6677 52.3149 69.4578L52.5258 70.507C49.3616 70.0873 45.7755 70.0873 42.1894 70.7168L42.4003 69.6677C42.4003 69.6677 42.6113 69.6677 42.6113 69.8775L41.9785 70.7168C40.0799 68.1989 38.1814 65.4712 36.0719 62.7434L36.7048 62.9533C32.0639 65.0515 26.7903 67.1498 21.7275 69.4578L22.1494 68.8284C22.7823 71.7659 23.4151 75.1231 24.048 78.4803H22.9932V78.2705L23.837 78.9C21.7275 80.5786 19.4071 82.8867 17.5086 85.1948L17.0867 85.8242C17.0867 85.8242 17.0867 85.8242 16.8758 85.8242C16.8758 85.8242 16.8758 85.8242 16.6648 85.8242C16.8758 85.8242 16.2429 85.1948 16.0319 85.6144C16.0319 85.6144 16.032 85.6144 15.821 85.6144L16.8758 84.5653C17.5086 83.726 18.1415 83.0965 18.9852 82.2572C20.4619 80.7884 21.9384 79.5295 23.4151 78.2705L23.2042 78.9C22.5713 75.7526 22.1494 72.6052 21.5166 69.4578L22.5713 69.6677L22.3603 69.8775L21.7275 69.0382C26.5793 66.9399 31.4311 64.8417 36.2829 62.7434V63.7926H35.861L36.4938 62.9533C38.3923 65.681 40.2909 68.1989 42.1894 70.9266L41.7675 70.7168C45.3536 70.0873 48.9397 70.0873 52.5258 70.507L52.1039 70.7168C54.0024 67.9891 55.901 65.2613 57.5885 62.7434L58.2214 63.5828L57.7995 63.7926V62.7434C62.8622 64.6319 67.714 66.7301 72.5658 68.6186L71.9329 69.4578L71.722 69.0382L72.7767 68.8284C72.3549 72.1856 71.722 75.333 71.3001 78.4803L71.0891 78.0607C74.0424 80.159 76.7847 82.8867 78.8942 85.6144L78.4723 85.4046C81.8474 84.7751 85.0117 84.1456 88.1759 83.726L87.9649 84.7751L87.5431 84.5653L88.1759 83.9358C90.2853 88.7618 92.3948 93.7976 94.5043 98.4138H93.4495C93.4495 98.2039 93.4496 97.9941 93.6605 97.7843L94.5043 98.4138C91.762 100.302 89.0197 102.4 86.4883 104.289L86.6992 103.869C87.3321 107.646 87.3321 111.213 86.9102 114.78L86.6992 114.361C89.4415 116.249 92.1839 118.137 94.9262 120.026L94.0824 120.655C94.0824 120.445 93.8715 120.236 93.8715 120.026H94.7152C92.6058 125.062 90.7072 129.888 88.8087 134.714L88.1759 134.084C88.3868 134.084 88.5977 133.874 88.8087 133.874L89.0196 134.714C85.6445 134.084 82.4803 133.664 79.3161 133.245L79.738 133.035C77.4176 136.182 74.8862 138.7 72.1439 140.799L72.3548 140.379C72.9877 143.736 73.6205 146.883 74.2533 150.031L73.4096 149.821C73.4096 149.611 73.6205 149.401 73.6205 149.192L74.2533 149.821C69.1906 151.919 64.3388 154.018 59.698 156.116V155.277C59.909 155.277 60.1199 155.486 60.3308 155.486L59.909 156.116C57.7995 153.388 55.9009 150.66 54.0024 148.142L54.4243 148.352C50.6273 148.982 47.0412 148.982 43.4551 148.562L43.877 148.352C41.7675 151.29 40.0799 153.808 38.1814 156.535L37.7595 155.906C37.9705 155.906 38.1814 155.696 38.3923 155.696V156.535C33.1187 154.437 28.2669 152.549 23.626 150.66L24.048 150.031C24.048 150.241 24.2589 150.451 24.2589 150.451L23.626 150.66C24.2589 147.093 24.6808 143.946 25.1027 141.008L25.3137 141.428C22.1494 139.12 19.6181 136.602 17.5086 133.874L17.9305 134.084C14.3444 134.714 11.1802 135.343 8.22692 135.973V135.343C8.43787 135.343 8.43783 135.553 8.64878 135.553L8.22692 135.973C5.90651 130.517 3.79703 125.901 1.89851 121.495H2.53133C2.53133 121.704 2.53131 121.704 2.32037 121.914L1.89851 121.704C5.06272 119.396 7.38311 117.718 9.91448 116.039V116.249C9.28163 112.052 9.49257 108.695 9.70352 105.548V105.758C6.32836 103.45 3.79702 101.771 1.68755 100.302L1.89851 100.092C1.89851 100.302 1.89851 100.302 1.89851 100.302H1.47659C4.00796 93.7976 5.90652 89.1815 7.38315 85.6144L7.59404 85.8242H7.38315V85.6144C12.8678 85.8243 15.3991 86.2439 16.2429 86.2439C16.2429 86.2439 15.3991 86.2439 13.9225 86.0341C12.2349 85.8243 9.91448 85.4046 6.75027 84.985H6.32841L6.53931 84.7751C6.53931 84.7751 6.53932 84.7751 6.75027 84.7751L6.96123 84.5653L6.75027 84.985C5.27364 88.552 3.5861 93.378 1.05474 99.6727L0.843776 100.092L0.632816 99.4629V99.2531L0.421856 98.6236L0.843776 98.8334C3.16419 100.302 5.48459 101.981 8.85974 104.289H9.0707V104.499C8.64881 107.436 8.64882 110.793 9.28166 114.99V115.2H9.0707C6.75028 116.878 4.21889 118.767 1.26563 121.075L0.632816 121.495L0.843776 120.655C0.843776 120.445 0.843788 120.445 1.05474 120.236L1.26563 119.396L1.68755 120.026C3.58608 124.432 5.69555 129.048 8.01596 134.504L8.43788 135.343L7.59404 134.923C7.3831 134.923 7.38314 134.714 7.17219 134.714L6.32841 134.294L7.17219 134.084C10.1254 133.455 13.2897 133.035 16.8758 132.196H17.0867L17.2976 132.406C19.4071 134.923 21.7275 137.441 24.8917 139.749L25.1027 139.959V140.169C24.6808 143.107 24.0479 146.254 23.626 149.821L23.4151 150.87L22.7823 150.031C22.7823 149.821 22.5713 149.821 22.5713 149.611L21.9385 148.772L22.9932 149.192C27.6341 151.08 32.4858 152.968 37.7595 155.067L38.8143 155.486L37.7595 155.906C37.5486 155.906 37.3376 156.116 37.1266 156.116L36.0719 156.535L36.7048 155.696C38.3924 153.178 40.2909 150.451 42.1894 147.513L42.4003 147.303H42.6113C45.9864 147.723 49.5725 147.723 53.3696 147.093H53.5806L53.7915 147.303C55.69 149.821 57.5885 152.339 59.698 155.277L60.3308 156.326L59.0652 155.906C58.8542 155.906 58.6433 155.906 58.4323 155.696L57.1666 155.277L58.2214 154.857C62.8622 152.759 67.714 150.66 72.7767 148.562L74.0424 148.142L73.4096 149.192C73.4096 149.401 73.1986 149.611 73.1986 149.821L72.5658 150.87L72.3548 149.611C71.722 146.464 71.0892 143.316 70.4563 139.959V139.749L70.6673 139.54C73.4096 137.441 75.941 134.923 78.0504 131.986L78.2613 131.776H78.4723C81.6365 132.196 84.8007 132.825 88.1759 133.245L89.4416 133.455L88.1759 134.084C87.9649 134.084 87.754 134.294 87.5431 134.294L86.2774 134.923L86.6992 133.664C88.5977 128.838 90.4963 124.012 92.6058 118.977L93.0276 117.718L93.4495 118.977C93.4495 119.187 93.6605 119.396 93.6605 119.606L94.0824 120.865L92.8167 120.026C90.0744 118.137 87.543 116.459 84.5897 114.361L84.3788 114.151V113.941C84.8007 110.374 84.8007 106.807 84.1679 103.24V103.03L84.3788 102.82C86.9102 100.932 89.6525 99.0433 92.3948 96.945L93.6605 96.1057L93.2386 97.5745C93.2386 97.7843 93.2386 97.9941 93.0276 98.204L92.6058 99.6727L91.9729 98.4138C89.8634 93.5878 87.7539 88.7618 85.6445 83.9358L85.0117 82.6769L86.2774 83.3063L86.6992 83.5162L87.9649 84.1456L86.4883 84.3555C83.3241 84.9849 79.9489 85.6144 76.7847 86.2439H76.5738L76.3628 86.0341C74.2533 83.3063 71.722 80.7884 68.7687 78.6902L68.5578 78.4803V78.0607C68.9797 74.9133 69.6125 71.5561 70.0344 68.4087L70.2454 66.9399L71.0891 68.1989L71.3001 68.6186L72.1439 69.8775L70.6673 69.248C65.8155 67.3596 60.9637 65.2613 55.901 63.3729L54.4243 62.7434L55.901 62.3238L56.3228 62.1139L57.7995 61.6943L58.6433 63.3729C56.7447 66.1006 54.8462 68.6186 53.1586 71.3463L52.9477 71.5561H52.5258C48.9397 71.1364 45.5646 71.1365 41.9785 71.7659H41.5565L41.3456 71.5561C39.4471 69.0382 37.5486 66.3105 35.65 63.5828L34.8063 62.3238L36.2829 62.7434H36.7048L38.1814 63.1631L36.7048 63.7926C31.853 65.8908 27.0012 67.9891 22.1494 70.0873L20.6728 70.7168L21.3056 69.248L21.5166 69.0382L22.3603 67.5694L22.5713 69.0382C23.2041 72.1856 23.6261 75.333 24.2589 78.4803V78.9L24.048 79.1098C22.5713 80.3688 21.0947 81.6277 19.6181 82.8867C18.9852 83.5162 18.3524 84.3555 17.7195 84.985L16.6648 86.0341V86.2439C16.6648 86.2439 16.6648 86.2439 16.4538 86.2439C16.2429 86.4537 15.6101 85.8243 15.821 86.0341V85.8242C15.821 85.6144 16.0319 85.4046 16.0319 85.1948L16.4538 84.5653C18.3524 82.0474 20.6728 79.9491 22.7823 78.0607L24.2589 76.8017L23.626 78.6902V78.9L22.9932 80.7884L22.5713 78.9C21.9385 75.5428 21.3056 72.3954 20.6728 69.248V68.8284L21.0947 68.6186C26.1574 66.3105 31.4311 64.2122 36.0719 62.1139L36.4938 61.9041L36.7048 62.3238C38.6033 65.0515 40.7128 67.7793 42.6113 70.2972L43.877 71.9758L41.9785 71.1365C41.9785 71.1365 41.7675 71.1365 41.7675 70.9266L40.08 70.0873L41.9785 69.8775C45.5646 69.248 49.3616 69.248 52.5258 69.6677L54.4243 69.8775L52.7368 70.7168C52.5258 70.7168 52.5258 70.7168 52.3149 70.9266L50.6273 71.7659L51.682 70.0873C53.5806 67.3596 55.479 64.422 57.3776 61.9041L57.5885 61.4845L58.0105 61.6943C63.2841 63.7926 68.5578 65.8908 73.4096 67.7793L73.8315 67.9891V68.4087C73.1986 71.7659 72.7767 75.1232 72.3548 78.2705L72.1439 80.159L71.5111 78.4803C71.5111 78.2705 71.3001 78.2705 71.3001 78.0607L70.6673 76.3821L72.1439 77.4312C75.0971 79.5295 77.6285 82.2572 79.738 84.7751L81.0037 86.2439L79.3161 85.6144C79.1051 85.6144 79.1052 85.4046 78.8942 85.4046L77.2066 84.7751L79.1052 84.3555C82.4803 83.726 85.8554 83.0965 88.8087 82.4671H89.2306L89.4416 82.8867C91.762 88.1323 94.0824 93.378 95.9809 97.9941L96.1918 98.4138L95.77 98.6236C93.0277 100.722 90.2853 102.61 87.7539 104.499L86.2774 105.548L86.9102 103.869C86.9102 103.659 87.1211 103.659 87.1211 103.45L87.7539 101.771L87.9649 103.45C88.5977 107.017 88.5978 110.793 88.1759 113.941L87.9649 115.619L87.1211 113.941C87.1211 113.731 86.9102 113.731 86.9102 113.521L86.0664 111.843L87.5431 112.892C90.4963 114.78 93.2386 116.878 95.77 118.557L96.1918 118.767L95.9809 119.187C93.8715 124.642 91.7619 129.888 89.8634 134.714L89.6525 135.133H89.2306C85.8554 134.504 82.2693 134.084 79.3161 133.664L77.6285 133.455L79.1052 132.825C79.3161 132.825 79.527 132.615 79.527 132.615L81.0037 131.986L79.9489 133.245C77.8395 136.182 75.0972 138.91 72.5658 140.799L71.3001 141.848L71.9329 140.379C71.9329 140.169 72.1439 139.959 72.1439 139.959L72.7767 138.49L72.9876 140.169C73.6205 143.526 74.2534 146.883 74.8862 150.031V150.451L74.4643 150.66C69.1906 152.968 63.917 155.276 59.0652 157.165L58.6433 157.375L58.4323 157.165C56.3228 154.437 54.4243 151.5 52.5258 149.192L51.682 147.933L53.1586 148.562C53.3696 148.562 53.3696 148.772 53.5806 148.772L55.0571 149.401L53.5806 149.611C49.7835 150.241 46.1974 150.241 43.0332 149.821L41.5565 149.611L42.8222 148.982C43.0332 148.982 43.0332 148.772 43.2442 148.772L44.5098 148.142L43.666 149.401C41.7675 152.339 39.6581 155.067 37.9705 157.585L37.7595 157.794L37.5486 157.585C32.0639 155.486 26.7903 153.388 22.1494 151.5L21.9385 151.29V151.08C22.5713 147.723 22.9932 144.366 23.4151 141.218L23.626 139.959L24.048 141.218C24.048 141.428 24.2589 141.428 24.2589 141.638L24.6808 142.897L23.626 142.057C20.6728 139.749 18.1414 137.232 16.0319 134.714L15.1882 133.664L16.2429 134.084C16.4538 134.084 16.4539 134.084 16.6648 134.294L17.7195 134.714L16.4538 134.923C13.0787 135.553 9.70353 136.182 6.75027 136.602H6.53931V136.392C4.21889 131.147 2.10947 126.111 0 121.285L0 121.075L0.210896 120.865C2.95321 118.767 5.69556 116.878 8.22692 115.2L9.0707 114.57L8.64878 115.41C8.64878 115.619 8.64883 115.619 8.43788 115.619L8.01596 116.459L7.805 115.619C7.17216 111.843 7.38311 108.485 7.805 105.128V104.289L8.22692 105.128C8.22692 105.128 8.22694 105.338 8.43788 105.338L8.85974 106.177L8.22692 105.758C5.27366 103.659 2.53131 101.771 0.210896 100.092H0L0 99.8825C2.53137 93.7976 4.64082 88.7618 6.11745 84.985C9.28166 85.6144 11.6021 86.0341 13.2896 86.2439C14.1334 86.4537 14.7663 86.4537 15.1882 86.6636C16.0319 86.2439 16.2429 86.2439 16.2429 86.2439Z" fill="#E0E0E0"/>
<path d="M124.881 103.654C125.725 102.395 126.78 101.346 128.045 100.507L127.202 96.5204L133.319 93.7926L135.639 97.1499C137.116 96.94 138.593 96.94 140.069 97.1499L142.39 93.7926L148.718 96.3105L148.085 100.297C149.351 101.137 150.406 102.186 151.25 103.445L155.258 102.605L158 108.69L154.625 110.998C154.836 112.467 154.836 113.936 154.625 115.405L158 117.713L155.469 124.008L151.461 123.378C150.617 124.637 149.562 125.686 148.296 126.525L149.14 130.512L143.023 133.24L140.702 129.883C139.226 130.092 137.749 130.092 136.272 129.883L133.952 133.24L127.624 130.722L128.256 126.735C126.991 125.896 125.936 124.847 125.092 123.588L121.084 124.427L118.342 118.342L121.717 116.034C121.506 114.565 121.506 113.097 121.717 111.628L118.342 109.32L120.873 103.025L124.881 103.654ZM131.632 110.579C130.155 114.356 132.053 118.342 135.639 119.811C139.437 121.28 143.445 119.391 144.921 115.824C146.398 112.257 144.499 108.061 140.913 106.592C137.327 105.123 133.108 106.802 131.632 110.579Z" fill="#E0E0E0"/>
<path d="M131.634 110.58C131.634 110.58 131.845 109.951 132.478 108.901C133.111 108.062 134.376 106.593 136.486 106.174C137.541 105.964 138.595 105.754 139.861 105.964C141.127 106.174 142.392 106.803 143.447 107.643C144.08 108.062 144.502 108.692 144.924 109.321C145.346 109.951 145.557 110.58 145.768 111.419C146.189 112.888 145.979 114.567 145.557 116.036C144.924 117.504 143.869 118.763 142.603 119.603C141.97 120.022 141.338 120.232 140.494 120.442C139.861 120.652 139.017 120.652 138.384 120.652C136.908 120.652 135.642 120.232 134.587 119.603C133.533 118.973 132.689 118.134 132.267 117.085C131.212 115.196 131.212 113.518 131.423 112.259C131.212 111.21 131.634 110.58 131.634 110.58C131.634 110.58 131.423 111.21 131.212 112.259C131.001 113.308 131.212 114.986 132.267 116.875C132.9 117.714 133.533 118.553 134.587 119.183C135.642 119.812 136.908 120.232 138.173 120.232C138.806 120.232 139.439 120.232 140.283 120.022C140.916 119.812 141.549 119.603 142.181 119.183C143.447 118.344 144.502 117.295 144.924 115.826C145.557 114.357 145.557 112.888 145.135 111.419C144.924 110.79 144.713 110.16 144.291 109.531C143.869 108.901 143.447 108.482 143.025 108.062C141.97 107.223 140.916 106.593 139.65 106.384C138.595 106.174 137.33 106.174 136.486 106.593C134.587 107.223 133.322 108.272 132.689 109.111C131.845 109.951 131.634 110.58 131.634 110.58Z" fill="#E0E0E0"/>
<path d="M124.879 103.655C124.879 103.655 124.879 103.655 124.668 103.655C124.457 103.655 124.246 103.655 123.824 103.655C123.192 103.655 122.137 103.445 120.871 103.235C120.238 104.914 119.395 107.012 118.34 109.53V109.32C119.395 109.949 120.449 110.789 121.715 111.628C121.504 112.887 121.504 114.356 121.715 116.034C120.66 116.874 119.606 117.503 118.34 118.342V118.133C119.184 120.021 120.027 122.119 121.082 124.218H120.871C122.137 124.008 123.403 123.798 124.879 123.378C125.723 124.427 126.778 125.477 128.043 126.316V126.526C127.832 127.785 127.622 129.044 127.411 130.512L127.2 130.303C129.098 131.142 131.208 131.981 133.528 132.82H133.317C133.95 131.771 134.794 130.722 135.638 129.463H135.848C137.114 129.673 138.802 129.673 140.278 129.463H140.489C141.333 130.512 141.966 131.561 142.81 132.82H142.599C144.497 131.981 146.607 131.142 148.716 130.093L148.505 130.303C148.294 129.044 148.083 127.785 147.662 126.316V126.106C148.716 125.267 149.771 124.218 150.615 122.959H150.826C152.091 123.168 153.568 123.378 154.834 123.588L154.623 123.798C155.467 121.7 156.31 119.601 157.154 117.503V117.713C156.099 116.874 154.834 116.244 153.779 115.405V115.195C153.99 113.726 153.99 112.258 153.779 110.789V110.579C154.834 109.74 155.888 108.9 157.154 108.271V108.481C156.31 106.382 155.256 104.284 154.412 102.396L154.623 102.606C153.357 102.815 151.88 103.025 150.615 103.445H150.404C149.56 102.186 148.505 101.347 147.24 100.507V100.297C147.451 98.8287 147.661 97.5697 147.872 96.3108L148.083 96.5206C145.974 95.6813 143.864 94.842 141.755 94.0027H141.966C141.122 95.2617 140.489 96.3108 139.646 97.3599C138.169 97.1501 136.692 97.1501 135.216 97.3599C134.372 96.101 133.528 95.0518 132.895 94.0027H133.106C130.786 95.0518 128.676 95.8911 126.989 96.7304C127.2 98.409 127.411 99.668 127.622 100.717C126.356 101.556 125.723 102.396 125.301 103.025C125.301 103.235 125.09 103.445 124.879 103.655C124.879 103.655 124.879 103.655 125.09 103.445C125.301 103.235 125.301 103.025 125.512 102.815C125.934 102.186 126.778 101.347 127.832 100.507C127.622 99.4582 127.411 98.1992 126.989 96.5206C128.676 95.6813 130.786 94.842 133.106 93.7929C133.95 94.842 134.583 95.8911 135.427 97.1501H135.216C136.692 96.9403 138.169 96.9403 139.646 97.1501H139.435C140.067 96.101 140.911 95.0518 141.755 93.7929H141.966C143.864 94.6322 145.974 95.4715 148.294 96.3108H148.505V96.5206C148.294 97.7796 148.083 99.2483 147.872 100.507V100.297C149.138 101.137 150.193 102.186 151.037 103.445H150.826C152.091 103.235 153.568 103.025 154.834 102.606H155.045V102.815C155.888 104.914 156.732 106.802 157.787 108.9V109.11H157.576C156.521 109.949 155.467 110.789 154.201 111.418V111.208C154.412 112.677 154.412 114.146 154.201 115.615V115.405C155.256 116.244 156.521 116.874 157.576 117.713H157.787V117.923C156.943 120.021 156.099 122.119 155.256 124.218V124.427H155.045C153.779 124.218 152.302 124.008 151.037 123.798H151.248C150.404 125.057 149.349 126.106 148.083 126.945V126.735C148.294 128.204 148.505 129.463 148.927 130.722V130.932H148.716C146.607 131.771 144.497 132.82 142.599 133.66H142.388V133.45C141.544 132.401 140.7 131.142 140.067 130.093H140.278C138.802 130.303 137.114 130.303 135.848 130.093H136.059C135.216 131.352 134.372 132.401 133.739 133.45V133.66H133.528C131.419 132.82 129.309 131.981 127.2 131.142H126.989V130.932C127.2 129.463 127.411 128.204 127.622 126.945V127.155C126.356 126.316 125.301 125.057 124.457 124.008H124.668C123.192 124.218 121.926 124.427 120.66 124.637H120.449V124.427C119.606 122.329 118.551 120.231 117.707 118.342V118.133C118.762 117.293 120.027 116.454 121.082 115.825V116.034C120.871 114.566 120.871 113.097 121.082 111.628V111.838C119.817 110.999 118.762 110.159 117.707 109.53C118.762 107.012 119.606 104.914 120.238 103.235C121.504 103.445 122.559 103.655 123.192 103.655C123.614 103.655 123.824 103.655 124.035 103.865C124.668 103.655 124.879 103.655 124.879 103.655Z" fill="#E0E0E0"/>
<path d="M94.7164 16.7861C96.193 14.8976 97.8806 13.0092 99.7791 11.5404L98.5134 4.826L108.85 0.419645L112.858 5.87512C115.178 5.45547 117.71 5.45546 120.241 5.66529L124.038 0L134.585 4.19651L133.531 10.9109C135.429 12.3797 137.328 14.0583 138.804 15.9467L145.555 14.6878L149.984 24.9692L144.5 28.9559C144.922 31.264 144.922 33.7819 144.5 36.2998L150.195 40.0767L145.976 50.568L139.226 49.5188C137.75 51.4073 136.062 53.2957 134.163 54.7645L135.429 61.4789L125.093 65.8852L121.085 60.4298C118.764 60.8494 116.233 60.8494 113.702 60.6396L109.905 66.3049L99.3572 62.1084L100.412 55.394C98.5134 53.9252 96.6149 52.2466 95.1382 50.3582L88.388 51.6171L83.9581 41.3356L89.4427 37.349C89.0208 35.0409 89.0208 32.523 89.2317 30.0051L83.5361 26.2282L87.7551 15.7369L94.7164 16.7861ZM105.897 28.3265C103.365 34.4114 106.529 41.5455 112.647 43.8535C118.764 46.1616 125.937 43.2241 128.257 37.1391C130.788 31.0542 127.624 23.9201 121.507 21.612C115.389 19.304 108.428 22.2415 105.897 28.3265Z" fill="#F5F5F5"/>
<path d="M105.896 28.329C105.896 28.329 106.107 27.2798 107.162 25.6012C108.216 24.1325 110.326 21.8244 113.701 20.9851C115.389 20.5654 117.287 20.3556 119.397 20.7753C121.506 21.1949 123.616 22.0342 125.303 23.7128C126.147 24.5521 126.991 25.3914 127.624 26.4405C128.256 27.4897 128.889 28.5388 129.1 29.7978C129.733 32.3157 129.522 35.0434 128.678 37.5613C127.624 40.0792 125.936 42.1775 123.616 43.4364C122.561 44.0659 121.295 44.6954 120.24 44.9052C118.975 45.115 117.92 45.3248 116.654 45.3248C114.334 45.3248 112.224 44.4855 110.326 43.4364C108.638 42.3873 107.373 40.9185 106.318 39.4497C104.63 36.5122 104.419 33.3648 104.841 31.4764C105.474 29.3781 105.896 28.329 105.896 28.329C105.896 28.329 105.474 29.3781 105.263 31.2665C105.052 33.155 105.263 36.0925 106.951 38.8203C107.795 40.289 109.06 41.548 110.748 42.5971C112.435 43.6463 114.545 44.2757 116.654 44.2757C117.709 44.2757 118.975 44.2757 120.03 43.8561C121.084 43.6462 122.35 43.0168 123.194 42.3873C125.303 41.1283 126.991 39.2399 127.835 36.722C128.678 34.4139 128.889 31.6862 128.256 29.3781C128.046 28.1192 127.413 27.07 126.78 26.2307C126.147 25.1816 125.514 24.3423 124.67 23.7128C122.983 22.244 121.084 21.4047 119.186 20.9851C117.287 20.5654 115.389 20.7752 113.701 21.1949C110.326 22.0342 108.216 24.1325 107.162 25.6012C106.318 27.4897 106.107 28.329 105.896 28.329Z" fill="#F5F5F5"/>
<path d="M94.7134 16.7869C94.7134 16.7869 94.5024 16.7869 94.2915 16.7869C94.0805 16.7869 93.6586 16.7869 93.0258 16.5771C91.7601 16.3673 90.0725 16.1574 87.963 15.9476H88.174C87.1193 18.6753 85.6426 22.0325 84.166 26.4389V26.2291C85.8536 27.2782 87.7521 28.747 89.8615 30.0059V30.2158C89.6506 32.5238 89.6506 34.8319 90.0725 37.5596V37.7695H89.8615C88.174 39.0284 86.2755 40.2874 84.377 41.7562V41.5463C85.8536 44.6937 87.3302 48.2608 88.8068 51.8278L88.5959 51.618C90.7054 51.1983 93.0258 50.7787 95.3462 50.359H95.5571L95.7681 50.5688C97.2447 52.2474 98.9323 54.1359 101.042 55.6047L101.253 55.8145V56.0243C100.831 58.1226 100.62 60.4306 100.198 62.7387L99.9871 62.3191C103.362 63.578 106.737 65.0468 110.534 66.5156L110.112 66.7254C111.378 65.0468 112.644 63.1584 113.91 61.0601L114.12 60.8503H114.331C116.652 61.0601 119.183 61.0601 121.504 60.6405H121.715L121.926 60.8503C123.191 62.5289 124.457 64.4173 125.934 66.3057L125.512 66.0959C128.887 64.6272 132.262 63.1584 135.848 61.6896L135.637 62.1092C135.215 60.011 134.793 57.7029 134.371 55.3948V55.185L134.582 54.9752C136.481 53.5064 138.168 51.8278 139.645 49.7295L139.856 49.5197H140.067C142.387 49.9393 144.497 50.1492 146.817 50.5688L146.395 50.7787C147.872 47.2116 149.138 43.8544 150.614 40.2874L150.825 40.707C148.927 39.4481 147.028 38.1891 145.13 36.9302L144.919 36.7204V36.5105C145.13 33.9926 145.13 31.6845 144.919 29.3765V29.1666L145.13 28.9568C147.028 27.6979 148.927 26.2291 150.614 24.9701L150.403 25.3898C148.927 21.8227 147.45 18.4655 145.973 15.1083L146.395 15.3182C144.075 15.7378 141.966 16.1574 139.645 16.5771H139.434L139.223 16.3673C137.747 14.4789 135.848 12.8002 133.95 11.3315L133.739 11.1216V10.9118C134.16 8.60373 134.371 6.50548 134.793 4.1974L135.004 4.4072C131.418 2.93843 127.832 1.46965 124.457 0.210693L124.668 0.210693C123.402 2.09912 122.136 3.98758 120.871 5.87601V6.08581H120.66C118.128 5.87599 115.597 5.87599 113.488 6.08581H113.277V5.87601C111.8 3.98758 110.534 2.09914 109.269 0.420532H109.48C105.472 2.09914 102.097 3.56793 99.1433 4.82688V4.61704C99.5652 7.34477 99.987 9.44302 100.409 11.3315C98.5104 12.8002 97.2447 14.269 96.4009 15.1083C95.979 15.528 95.7681 15.9476 95.5571 16.1574C94.7134 16.7869 94.7134 16.7869 94.7134 16.7869C94.7134 16.7869 94.7134 16.5771 94.9243 16.3673C95.1353 16.1575 95.3462 15.7378 95.7681 15.3182C96.6119 14.4789 97.8776 13.0101 99.7761 11.5413V11.7511C99.3542 9.86267 98.9323 7.76442 98.5104 5.03669V4.82688H98.7214C101.675 3.56793 105.05 2.09914 109.058 0.420532H109.269V0.63037C110.534 2.30897 111.8 4.19739 113.277 6.08581H113.066C115.386 5.66616 117.918 5.66618 120.449 5.87601L120.238 6.08581C121.504 4.40721 122.769 2.51879 124.035 0.420532L124.246 0.210693H124.457C127.832 1.46965 131.207 2.93843 135.004 4.4072H135.215V4.61704C134.793 6.7153 134.582 9.02337 134.16 11.3315L133.95 11.1216C135.848 12.5904 137.747 14.269 139.223 16.1574L139.012 15.9476C141.122 15.528 143.442 15.1083 145.763 14.6887H145.973V14.8985C147.45 18.2557 148.927 21.6129 150.403 25.18V25.3898L150.192 25.5996C148.294 26.8585 146.606 28.3273 144.708 29.5863L144.919 29.1666C145.341 31.4747 145.341 33.9926 145.13 36.5105L144.919 36.0909C146.817 37.3498 148.716 38.6088 150.614 39.8677L150.825 40.0775V40.2874C149.56 43.6446 148.083 47.2116 146.606 50.7787V50.9885H146.395C144.075 50.5688 141.966 50.359 139.645 49.9394L140.067 49.7295C138.59 51.8278 136.692 53.5064 134.793 54.9752L135.004 54.5555C135.426 56.8636 135.848 59.1717 136.27 61.2699V61.4798L136.059 61.6896C132.473 63.1584 129.098 64.6272 125.723 66.0959L125.512 66.3057L125.301 66.0959C123.824 64.2075 122.558 62.3191 121.293 60.6405L121.715 60.8503C119.183 61.2699 116.652 61.2699 114.331 60.8503L114.542 60.6405C113.277 62.5289 111.8 64.4173 110.745 66.3057L110.534 66.5156H110.323C106.737 65.0468 103.151 63.578 99.7761 62.3191H99.5651V62.1092C99.987 59.8011 100.198 57.4931 100.62 55.3948L100.831 55.6047C98.7214 54.1359 97.0338 52.2474 95.5571 50.359H95.7681C93.4477 50.7787 91.1272 51.1983 89.0178 51.618H88.8068V51.4081C87.3302 47.8411 85.8536 44.2741 84.377 41.1267V40.9169L84.5879 40.707C86.4864 39.2383 88.3849 37.9793 90.0725 36.7204V36.9302C89.6506 34.4123 89.6506 31.8944 90.0725 29.5863V29.7961C87.963 28.3273 86.2755 27.0684 84.377 26.0192H84.166V25.8094C85.8536 21.6129 87.3302 18.0459 88.385 15.528C90.4944 15.9476 92.182 16.1575 93.4477 16.3673C94.0805 16.3673 94.5024 16.5771 94.7134 16.5771C94.5024 16.7869 94.7134 16.7869 94.7134 16.7869Z" fill="#F5F5F5"/>
</svg>
