<svg width="58" height="58" viewBox="0 0 58 58" fill="none" xmlns="http://www.w3.org/2000/svg">
<rect width="58" height="58" rx="8" fill="#1797B0"/>
<path d="M26.8912 21.9965C26.9647 22.4586 27.0048 22.9343 27.0048 23.3556C27.0048 23.8993 26.9647 24.375 26.8912 24.8371L28.3752 26.1826C28.8431 26.6108 29.037 27.2292 28.7896 27.8816C28.6359 28.1806 28.4688 28.5951 28.2816 28.9349L28.0744 29.3019C27.8137 29.6417 27.6532 29.9679 27.4193 30.2873C27.0383 30.8037 26.3698 30.9736 25.7682 30.7698L23.8764 30.1377C23.1612 30.7426 22.3456 31.2251 21.4566 31.5648L20.9953 33.5356C20.9218 34.1676 20.4405 34.6705 19.8122 34.752C19.3643 34.8064 18.9097 34.8336 18.4485 34.8336C17.9872 34.8336 17.5327 34.8064 17.0848 34.752C16.4565 34.6705 15.915 34.1676 15.8415 33.5356L15.3802 31.5648C14.5513 31.2251 13.7358 30.7426 13.0172 30.1377L11.1308 30.7698C10.5299 30.9736 9.86006 30.8037 9.47904 30.2873C9.2424 29.9679 9.02181 29.6349 8.81859 29.2951L8.61672 28.9349C8.43021 28.5951 8.26056 28.2417 8.10895 27.8816C7.86135 27.2292 8.05106 26.6108 8.52313 26.1826L10.0058 24.8371C9.93092 24.375 9.83198 23.8993 9.83198 23.3556C9.83198 22.9343 9.93092 22.4586 10.0058 21.9965L8.52313 20.6509C8.05106 20.1616 7.86135 19.5432 8.10895 18.952C8.26056 18.5307 8.43021 18.2378 8.61605 17.896L8.81926 17.5392C9.02181 17.196 9.2424 16.8644 9.47904 16.5456C9.86006 16.0326 10.5299 15.862 11.1308 16.0632L13.0172 16.6952C13.7358 16.0944 14.5513 15.6106 15.3802 15.2721L15.8415 13.2966C15.915 12.666 16.4565 12.1611 17.0848 12.0837C17.5327 12.0284 17.9872 12 18.4485 12C18.9097 12 19.3643 12.0284 19.8122 12.0836C20.4405 12.1611 20.9218 12.666 20.9953 13.2966L21.4566 15.2721C22.3456 15.6106 23.1612 16.0944 23.8764 16.6952L25.7682 16.0632C26.3698 15.862 27.0383 16.0326 27.4193 16.5456C27.6532 16.863 27.8137 17.1933 28.0744 17.5344L28.2816 17.9007C28.4688 18.2412 28.6359 18.5918 28.7896 18.952C29.037 19.5432 28.8431 20.1616 28.3752 20.6509L26.8912 21.9965ZM18.4485 20.0937C16.6771 20.0937 15.2399 21.6159 15.2399 23.3556C15.2399 25.2177 16.6771 26.6176 18.4485 26.6176C20.2199 26.6176 21.6571 25.2177 21.6571 23.3556C21.6571 21.6159 20.2199 20.0937 18.4485 20.0937ZM40.1669 43.9602C39.7123 44.035 39.2444 44.0757 38.7698 44.0757C38.2952 44.0757 37.8273 44.035 37.3727 43.9602L36.0492 45.4689C35.5679 45.9446 34.9596 46.1416 34.378 45.8902C34.0237 45.7339 33.6761 45.564 33.3419 45.3737L32.9809 45.1631C32.6467 44.898 32.3258 44.7349 32.0116 44.4971C31.5036 44.1097 31.3365 43.4302 31.537 42.8185L32.1587 40.8954C31.5638 40.1682 31.0891 39.3391 30.7549 38.4353L28.8164 37.9664C28.1947 37.8917 27.7 37.4024 27.6198 36.7636C27.5663 36.3083 27.5396 35.8461 27.5396 35.3772C27.5396 34.9083 27.5663 34.4462 27.6198 33.9909C27.7 33.3521 28.1947 32.8017 28.8164 32.7269L30.7549 32.258C31.0891 31.4153 31.5638 30.5863 32.1587 29.8591L31.537 27.9359C31.3365 27.3243 31.5036 26.6448 32.0116 26.2574C32.3258 26.0195 32.6534 25.7341 32.9876 25.5846L33.3419 25.3808C33.6761 25.1905 33.9635 25.0206 34.378 24.8643C34.9596 24.6128 35.5679 24.8099 36.0492 25.2856L37.3727 26.7943C37.8273 26.7195 38.2952 26.6787 38.7698 26.6787C39.2444 26.6787 39.7123 26.7195 40.1669 26.7943L41.4905 25.2856C41.9116 24.8099 42.5199 24.6128 43.1616 24.8643C43.5159 25.0206 43.8635 25.1905 44.1977 25.3808L44.552 25.5846C44.8862 25.7341 45.2138 26.0195 45.528 26.2574C46.036 26.6448 46.2031 27.3243 46.0026 27.9359L45.3809 29.8591C45.9758 30.5863 46.4505 31.4153 46.7847 32.258L48.7232 32.7269C49.3449 32.8017 49.8396 33.3521 49.9198 33.9909C49.9733 34.4462 50 34.9083 50 35.3772C50 35.8461 49.9733 36.3083 49.9198 36.7636C49.8396 37.4024 49.3449 37.8917 48.7232 37.9664L46.7847 38.4353C46.4505 39.3391 45.9758 40.1682 45.3809 40.8954L46.0026 42.8185C46.2031 43.4302 46.036 44.1097 45.528 44.4971C45.2138 44.7349 44.8929 44.898 44.5587 45.1631L44.1977 45.3737C43.8635 45.564 43.4557 45.7339 43.1616 45.8902C42.5199 46.1416 41.9116 45.9446 41.4905 45.4689L40.1669 43.9602ZM41.9784 35.3772C41.9784 33.5764 40.5412 32.1153 38.7698 32.1153C36.9984 32.1153 35.5612 33.5764 35.5612 35.3772C35.5612 37.1781 36.9984 38.6392 38.7698 38.6392C40.5412 38.6392 41.9784 37.1781 41.9784 35.3772Z" fill="white"/>
</svg>
