<svg width="47" height="45" viewBox="0 0 47 45" fill="none" xmlns="http://www.w3.org/2000/svg">
<path d="M23.5898 1.45723C23.5898 0.664014 24.1189 0 24.9775 0C35.7057 0 44.4044 8.81543 44.4044 19.6875C44.4044 20.4785 43.7453 21.0938 42.9647 21.0938H23.5898V1.45723ZM0 23.9062C0 13.2451 7.81414 4.42441 17.8745 3.01025C18.7505 2.89951 19.4269 3.54727 19.4269 4.36025V25.3125L32.9998 39.0674C33.5808 39.6562 33.5375 40.623 32.8697 41.1064C29.47 43.5586 25.3071 45 20.8146 45C9.32319 45 0 35.5605 0 23.9062ZM45.6533 25.3125C46.4512 25.3125 47.093 25.998 46.9889 26.8066C46.3211 31.7197 43.9795 36.0879 40.5797 39.3135C40.0594 39.7354 39.2441 39.7705 38.7411 39.2607L24.9775 25.3125H45.6533Z" fill="#1797B0"/>
</svg>
