<svg width="236" height="72" viewBox="0 0 236 72" fill="none" xmlns="http://www.w3.org/2000/svg">
<path fill-rule="evenodd" clip-rule="evenodd" d="M62.4446 28.754H63.5695C64.2891 28.754 64.8804 29.347 64.8855 30.0717L64.9625 43.5999C64.9663 44.3247 64.3814 44.9176 63.6619 44.9176H62.537C61.8174 44.9176 61.2261 44.3247 61.221 43.5999L61.1428 30.0717C61.1389 29.347 61.7238 28.754 62.4434 28.754H62.4446ZM54.3089 19.0923H55.4338C56.1533 19.0923 56.7433 19.5819 56.7446 20.1813L56.8306 48.0374C56.8331 48.6368 56.2457 49.1265 55.5261 49.1265H54.4012C53.6817 49.1265 53.0917 48.6368 53.0904 48.0374L53.0045 20.1813C53.0032 19.5819 53.5893 19.0923 54.3089 19.0923ZM13.7956 29.0886H14.9205C15.64 29.0886 16.2313 29.6816 16.2365 30.4063L16.3134 43.9345C16.3173 44.6592 15.7324 45.2522 15.0128 45.2522H13.888C13.1684 45.2522 12.5771 44.6592 12.572 43.9345L12.495 30.4063C12.4912 29.6816 13.076 29.0886 13.7956 29.0886ZM30.1171 18.2526H31.242C31.9616 18.2526 32.5516 18.8456 32.5529 19.5703L32.6388 52.949C32.6414 53.6738 32.0539 54.2667 31.3343 54.2667H30.2095C29.4899 54.2667 28.8999 53.6738 28.8986 52.949L28.8127 19.5703C28.8101 18.8456 29.3976 18.2526 30.1171 18.2526ZM21.898 10.2845H23.0229C23.7424 10.2845 24.3324 10.9214 24.3337 11.7004L24.4222 63.0216C24.4235 63.8005 23.8361 64.4374 23.1165 64.4374H21.9916C21.2721 64.4374 20.6821 63.8005 20.6808 63.0216L20.5936 11.7004C20.5923 10.9214 21.1797 10.2845 21.8993 10.2845H21.898ZM46.5541 10.2755H47.679C48.3985 10.2755 48.9885 10.8245 48.9898 11.495L49.077 55.5263C49.0783 56.1967 48.4909 56.7458 47.7713 56.7458H46.6464C45.9269 56.7458 45.3369 56.1967 45.3356 55.5263L45.2484 11.495C45.2471 10.8245 45.8345 10.2755 46.5541 10.2755ZM38.4517 1H39.5766C40.2961 1 40.8848 1.63042 40.8861 2.40165L40.9746 69.5983C40.9759 70.3696 40.3885 71 39.6689 71H38.544C37.8245 71 37.2358 70.3696 37.2345 69.5983L37.146 2.40165C37.1447 1.63042 37.7321 1 38.4517 1ZM69.8724 37.1627V36.3669C69.8724 35.8579 70.2867 35.4406 70.792 35.4406L234.08 35.3567C234.586 35.3567 235 35.7726 235 36.2816V37.0787C235 37.5877 234.586 38.0049 234.08 38.0049L70.792 38.0889C70.2867 38.0889 69.8724 37.6729 69.8724 37.164V37.1627ZM1.00005 37.3616L1.00774 36.5658C1.01287 36.0568 1.42973 35.6383 1.93637 35.637L6.52692 35.6202C7.03228 35.6189 7.44272 36.0336 7.43759 36.5426L7.42989 37.3384C7.42476 37.8473 7.00791 38.2659 6.50127 38.2672L1.91072 38.284C1.40536 38.2853 0.994917 37.8706 1.00005 37.3616Z" fill="#13353F" stroke="#13353F" stroke-width="0.1" stroke-miterlimit="22.9256"/>
<path d="M95.8995 27.2864C94.8375 27.2864 93.8344 27.1068 92.893 26.7464C91.9503 26.386 91.1242 25.8537 90.4124 25.1509C89.7018 24.4469 89.14 23.5723 88.7283 22.5246C88.3165 21.4769 88.1113 20.2665 88.1113 18.8932C88.1113 17.5355 88.3255 16.325 88.7539 15.2619C89.1823 14.1974 89.7569 13.297 90.4765 12.5606C91.1961 11.823 92.0362 11.2623 92.9956 10.8773C93.955 10.4924 94.9657 10.2986 96.0277 10.2986C97.1077 10.2986 98.0748 10.5117 98.9316 10.9393C99.7884 11.3669 100.499 11.8656 101.065 12.4353L99.0599 14.7981C98.6315 14.4131 98.1813 14.0979 97.7106 13.855C97.2398 13.6122 96.7037 13.4907 96.1047 13.4907C95.5391 13.4907 95.0042 13.6122 94.4988 13.855C93.9935 14.0979 93.5561 14.4454 93.188 14.8976C92.8199 15.3497 92.5287 15.9026 92.3145 16.5563C92.1003 17.21 91.9926 17.9476 91.9926 18.7679C91.9926 20.4603 92.3607 21.7715 93.0982 22.7016C93.8344 23.6317 94.8208 24.0968 96.0534 24.0968C96.7383 24.0968 97.3514 23.9495 97.8914 23.6576C98.4314 23.3643 98.9073 23 99.3177 22.5647L101.322 24.8771C99.918 26.4854 98.1095 27.2902 95.8995 27.2902V27.2864Z" fill="#FF6A1C"/>
<path d="M106.77 27.2865C106.187 27.2865 105.66 27.1896 105.19 26.9971C104.718 26.8046 104.32 26.5359 103.994 26.1923C103.668 25.8486 103.416 25.4507 103.236 24.9986C103.057 24.5465 102.967 24.0517 102.967 23.5156C102.967 22.2082 103.532 21.1864 104.662 20.45C105.794 19.7124 107.618 19.2189 110.137 18.967C110.102 18.4141 109.935 17.9735 109.635 17.648C109.335 17.3212 108.834 17.1584 108.132 17.1584C107.583 17.1584 107.039 17.2591 106.5 17.4594C105.96 17.6609 105.382 17.9374 104.765 18.2887L103.403 15.851C104.225 15.3653 105.086 14.9713 105.986 14.6703C106.885 14.368 107.841 14.2181 108.852 14.2181C110.496 14.2181 111.752 14.6742 112.616 15.5875C113.482 16.5008 113.914 17.9206 113.914 19.8467V26.9842H110.831L110.574 25.7027H110.471C109.923 26.1716 109.349 26.5527 108.749 26.8459C108.149 27.1392 107.489 27.2852 106.77 27.2852V27.2865ZM108.055 24.4211C108.483 24.4211 108.852 24.3294 109.161 24.1447C109.468 23.96 109.794 23.7003 110.137 23.3657V21.1786C108.8 21.3633 107.875 21.6308 107.361 21.9834C106.847 22.3348 106.59 22.7547 106.59 23.2404C106.59 23.6422 106.724 23.9406 106.989 24.1331C107.255 24.3255 107.61 24.4224 108.056 24.4224L108.055 24.4211Z" fill="#FF6A1C"/>
<path d="M120.571 27.2865C119.92 27.2865 119.372 27.1857 118.927 26.9855C118.482 26.7839 118.125 26.5036 117.86 26.1432C117.594 25.7827 117.402 25.3474 117.281 24.8358C117.161 24.3242 117.102 23.7507 117.102 23.1138V9.36725H120.88V23.2649C120.88 23.6499 120.953 23.9186 121.098 24.0698C121.244 24.2209 121.395 24.2958 121.548 24.2958C121.634 24.2958 121.708 24.2958 121.767 24.2958C121.827 24.2958 121.908 24.279 122.01 24.2454L122.473 26.9855C122.268 27.0694 122.006 27.1405 121.69 27.1986C121.373 27.2567 120.999 27.2865 120.571 27.2865Z" fill="#FF6A1C"/>
<path d="M127.921 27.2865C127.269 27.2865 126.721 27.1857 126.276 26.9855C125.831 26.7839 125.475 26.5036 125.209 26.1432C124.944 25.7827 124.751 25.3474 124.631 24.8358C124.51 24.3242 124.451 23.7507 124.451 23.1138V9.36725H128.23V23.2649C128.23 23.6499 128.303 23.9186 128.448 24.0698C128.594 24.2209 128.744 24.2958 128.898 24.2958C128.984 24.2958 129.057 24.2958 129.116 24.2958C129.176 24.2958 129.257 24.279 129.36 24.2454L129.823 26.9855C129.618 27.0694 129.356 27.1405 129.039 27.1986C128.722 27.2567 128.349 27.2865 127.921 27.2865Z" fill="#FF6A1C"/>
<path d="M137.506 27.2865C136.598 27.2865 135.75 27.1405 134.962 26.8472C134.173 26.554 133.488 26.1264 132.906 25.5657C132.323 25.0038 131.869 24.3217 131.543 23.5169C131.218 22.712 131.055 21.7909 131.055 20.7523C131.055 19.7472 131.227 18.8378 131.569 18.0252C131.911 17.2126 132.362 16.5254 132.918 15.9647C133.475 15.4028 134.114 14.9713 134.833 14.6703C135.553 14.368 136.298 14.2181 137.069 14.2181C137.977 14.2181 138.77 14.3693 139.447 14.6703C140.124 14.9713 140.689 15.3911 141.143 15.9273C141.597 16.4634 141.935 17.0964 142.158 17.825C142.382 18.5536 142.493 19.3455 142.493 20.1994C142.493 20.534 142.477 20.8531 142.442 21.1541C142.407 21.4564 142.373 21.6824 142.339 21.8323H134.706C134.878 22.7366 135.259 23.4032 135.85 23.8308C136.442 24.2584 137.165 24.4715 138.022 24.4715C138.93 24.4715 139.847 24.1951 140.772 23.6422L142.031 25.8783C141.38 26.3137 140.656 26.6573 139.86 26.9092C139.063 27.1612 138.28 27.2865 137.509 27.2865H137.506ZM134.679 19.3959H139.28C139.28 18.6918 139.117 18.1221 138.792 17.6867C138.466 17.2514 137.918 17.0331 137.147 17.0331C136.547 17.0331 136.021 17.2256 135.567 17.6118C135.113 17.9968 134.818 18.5923 134.681 19.3959H134.679Z" fill="#FF6A1C"/>
<path d="M145.115 26.9855V14.5204H148.198L148.456 16.7062H148.558C149.021 15.8523 149.578 15.2232 150.228 14.8214C150.88 14.4197 151.53 14.2181 152.182 14.2181C152.542 14.2181 152.837 14.2388 153.068 14.2814C153.299 14.3228 153.509 14.3861 153.698 14.47L153.081 17.6622C152.841 17.595 152.618 17.5446 152.413 17.5111C152.208 17.4775 151.968 17.4607 151.693 17.4607C151.213 17.4607 150.712 17.6286 150.19 17.9632C149.667 18.2978 149.234 18.8933 148.892 19.7472V26.9855H145.113H145.115Z" fill="#FF6A1C"/>
<path d="M155.652 26.9856V10.5998H161.383C162.257 10.5998 163.067 10.6631 163.812 10.7884C164.558 10.9137 165.209 11.1359 165.766 11.455C166.323 11.7728 166.76 12.1926 167.077 12.712C167.394 13.2313 167.553 13.885 167.553 14.6717C167.553 15.0399 167.501 15.4093 167.399 15.7775C167.296 16.1457 167.15 16.4893 166.961 16.8084C166.773 17.1262 166.546 17.4117 166.28 17.6623C166.015 17.9142 165.711 18.0977 165.368 18.2152V18.316C165.797 18.4168 166.19 18.5718 166.551 18.7811C166.911 18.9903 167.228 19.2539 167.501 19.573C167.776 19.8908 167.99 20.2641 168.144 20.6917C168.298 21.1193 168.375 21.6089 168.375 22.1618C168.375 22.9989 168.208 23.7198 167.873 24.3231C167.539 24.9264 167.077 25.425 166.485 25.819C165.894 26.2131 165.204 26.5063 164.417 26.6988C163.629 26.8913 162.78 26.9882 161.872 26.9882H155.652V26.9856ZM159.431 17.1598H161.205C162.131 17.1598 162.803 16.9841 163.222 16.6314C163.642 16.28 163.852 15.8098 163.852 15.2246C163.852 14.5877 163.638 14.1356 163.21 13.8669C162.781 13.5982 162.122 13.4651 161.231 13.4651H159.431V17.1598ZM159.431 24.1216H161.564C163.637 24.1216 164.674 23.3839 164.674 21.9099C164.674 21.1891 164.418 20.6736 163.904 20.3636C163.389 20.0535 162.609 19.8985 161.565 19.8985H159.432V24.1203L159.431 24.1216Z" fill="#FF6A1C"/>
<path d="M173.745 26.9856V13.7157H169.145V10.5998H182.149V13.7157H177.55V26.9856H173.745Z" fill="#FF6A1C"/>
<path d="M91.2089 56.7703C90.2726 56.7703 89.5441 56.459 89.0233 55.8363C88.5026 55.2137 88.2422 54.3959 88.2422 53.3818V52.7953C88.2422 51.7903 88.5 50.9764 89.0169 50.3537C89.5338 49.7311 90.2687 49.4197 91.223 49.4197C91.6643 49.4197 92.0619 49.4934 92.4146 49.6394C92.7673 49.7866 93.0995 50.0062 93.4086 50.2995L92.9058 50.8601C92.6673 50.647 92.4159 50.4868 92.1504 50.3796C91.8849 50.2724 91.5847 50.2194 91.25 50.2194C90.6048 50.2194 90.1059 50.4468 89.7531 50.9002C89.4004 51.3536 89.2234 51.9763 89.2234 52.7682V53.3948C89.2234 54.2047 89.3953 54.8352 89.7403 55.2899C90.0853 55.7433 90.5791 55.9707 91.2243 55.9707C91.5514 55.9707 91.8451 55.9177 92.1055 55.8105C92.3659 55.7033 92.6288 55.5521 92.8943 55.3571L93.3445 55.9978C93.0533 56.2291 92.7237 56.4164 92.3582 56.5585C91.9913 56.7006 91.6091 56.7716 91.2128 56.7716L91.2089 56.7703Z" fill="#13353F"/>
<path d="M97.6084 49.4197C98.4293 49.4197 99.0475 49.629 99.4631 50.0463C99.8786 50.4648 100.085 51.0423 100.085 51.7812V56.6114H99.2771L99.2104 55.7976C98.6191 56.4474 97.8546 56.7716 96.9183 56.7716C96.5117 56.7716 96.1385 56.6915 95.7986 56.5314C95.4587 56.3712 95.1842 56.1425 94.9777 55.8441C94.7699 55.5457 94.666 55.2008 94.666 54.8106V54.3701C94.666 53.7565 94.92 53.2643 95.4279 52.8961C95.9358 52.5266 96.622 52.3419 97.4878 52.3419H99.1039V51.7554C99.1039 51.24 98.9757 50.855 98.7191 50.6018C98.4626 50.3486 98.0701 50.222 97.5404 50.222C97.1518 50.222 96.7965 50.2685 96.4745 50.3628C96.1526 50.4558 95.805 50.5966 95.4343 50.7826L95.1162 50.116C95.8935 49.6536 96.7234 49.4223 97.6071 49.4223L97.6084 49.4197ZM97.0787 55.9965C97.9444 55.9965 98.6191 55.6632 99.1052 54.9953V53.0472H97.5558C96.9465 53.0472 96.4758 53.1674 96.1449 53.4077C95.814 53.648 95.6485 53.9942 95.6485 54.4489V54.7421C95.6485 55.1245 95.7793 55.4294 96.0397 55.6555C96.3001 55.8828 96.6464 55.9952 97.0799 55.9952L97.0787 55.9965Z" fill="#13353F"/>
<path d="M103.529 55.317C103.529 55.5482 103.573 55.7123 103.661 55.8105C103.75 55.9087 103.891 55.9578 104.085 55.9578C104.226 55.9578 104.363 55.9397 104.495 55.9048L104.627 56.6114C104.371 56.7187 104.107 56.7716 103.832 56.7716C103.434 56.7716 103.121 56.6579 102.892 56.4319C102.662 56.2045 102.547 55.8828 102.547 55.4643V46.7391H103.527V55.3183L103.529 55.317Z" fill="#13353F"/>
<path d="M107.477 55.317C107.477 55.5482 107.52 55.7123 107.609 55.8105C107.697 55.9087 107.838 55.9578 108.032 55.9578C108.173 55.9578 108.31 55.9397 108.442 55.9048L108.575 56.6114C108.318 56.7187 108.054 56.7716 107.779 56.7716C107.382 56.7716 107.069 56.6579 106.839 56.4319C106.61 56.2045 106.494 55.8828 106.494 55.4643V46.7391H107.474V55.3183L107.477 55.317Z" fill="#13353F"/>
<path d="M110.973 53.3946V53.4217C110.973 54.2395 111.172 54.8712 111.57 55.3169C111.967 55.7613 112.524 55.9835 113.238 55.9835C113.609 55.9835 113.94 55.9279 114.232 55.8168C114.524 55.7057 114.829 55.543 115.147 55.3298L115.532 55.9706C115.232 56.2018 114.878 56.393 114.472 56.5441C114.066 56.6953 113.637 56.7715 113.187 56.7715C112.542 56.7715 111.979 56.6268 111.498 56.3374C111.017 56.0481 110.65 55.6502 110.399 55.1438C110.147 54.6361 110.021 54.0625 110.021 53.423V52.7293C110.021 52.1157 110.143 51.5576 110.386 51.0551C110.628 50.5526 110.973 50.1547 111.42 49.8614C111.866 49.5682 112.389 49.4209 112.989 49.4209C113.881 49.4209 114.579 49.7167 115.083 50.3084C115.586 50.9001 115.838 51.7204 115.838 52.7694C115.838 53.0277 115.825 53.2357 115.798 53.3959H110.977L110.973 53.3946ZM112.987 50.2063C112.36 50.2063 111.87 50.426 111.517 50.8665C111.164 51.307 110.982 51.909 110.974 52.6738H114.948V52.5808C114.948 51.8418 114.777 51.2618 114.438 50.8393C114.098 50.4169 113.614 50.205 112.987 50.205V50.2063Z" fill="#13353F"/>
<path d="M120.79 49.4597C121.046 49.4597 121.301 49.4998 121.558 49.5799L121.386 50.5139C121.271 50.4777 121.112 50.4609 120.909 50.4609C119.929 50.4609 119.271 51.0345 118.935 52.1816V56.6114H117.955V49.5799H118.696L118.855 50.8601C119.05 50.3795 119.32 50.0268 119.664 49.7995C120.009 49.5721 120.383 49.4597 120.79 49.4597Z" fill="#13353F"/>
<path d="M129.795 49.4196C130.325 49.4196 130.789 49.5579 131.186 49.833C131.583 50.1095 131.89 50.4958 132.107 50.9944C132.323 51.4931 132.431 52.0705 132.431 52.7294V53.4231C132.431 54.0457 132.308 54.6129 132.061 55.1244C131.813 55.636 131.473 56.0378 131.041 56.3323C130.609 56.6256 130.122 56.7728 129.584 56.7728C128.815 56.7728 128.163 56.4886 127.624 55.9189L127.532 56.6126H126.736V46.7404H127.716V50.342C128.228 49.7284 128.922 49.4209 129.795 49.4209V49.4196ZM131.451 52.7151C131.451 51.9142 131.295 51.298 130.981 50.8678C130.668 50.4363 130.224 50.2206 129.649 50.2206C129.243 50.2206 128.876 50.3123 128.55 50.4945C128.223 50.6766 127.945 50.9324 127.715 51.2618V55.1438C128.174 55.7045 128.756 55.9848 129.463 55.9848C130.055 55.9848 130.534 55.7562 130.901 55.2975C131.268 54.8389 131.451 54.224 131.451 53.4502V52.7164V52.7151Z" fill="#13353F"/>
<path d="M137.188 49.4197C137.85 49.4197 138.415 49.5619 138.884 49.8474C139.352 50.1316 139.707 50.523 139.95 51.0216C140.192 51.5203 140.314 52.0887 140.314 52.7295V53.4232C140.314 54.073 140.192 54.6504 139.95 55.1581C139.707 55.6645 139.351 56.0611 138.884 56.3453C138.415 56.6295 137.85 56.7716 137.188 56.7716C136.199 56.7716 135.435 56.4642 134.896 55.8506C134.357 55.2369 134.088 54.4269 134.088 53.4219V52.7282C134.088 52.0874 134.207 51.519 134.446 51.0203C134.684 50.5217 135.036 50.1303 135.499 49.8461C135.962 49.5619 136.525 49.4185 137.188 49.4185V49.4197ZM137.188 50.2207C136.499 50.2207 135.973 50.4403 135.612 50.8808C135.25 51.3213 135.069 51.9324 135.069 52.7152V53.409C135.069 54.219 135.25 54.8494 135.612 55.3041C135.973 55.7575 136.499 55.9849 137.188 55.9849C137.868 55.9849 138.396 55.7575 138.771 55.3041C139.147 54.8507 139.334 54.219 139.334 53.409V52.7152C139.334 51.9414 139.147 51.3317 138.771 50.8873C138.395 50.4429 137.868 50.2207 137.188 50.2207Z" fill="#13353F"/>
<path d="M145.706 56.6102C145.336 56.7174 144.978 56.7704 144.633 56.7704C144.051 56.7704 143.604 56.6321 143.295 56.357C142.986 56.0805 142.832 55.6723 142.832 55.1297V50.3538H141.719V49.5799H142.845L142.937 47.9122H143.812V49.5799H145.495V50.3538H143.812V55.0897C143.812 55.3829 143.895 55.6051 144.063 55.7563C144.231 55.9074 144.479 55.9836 144.805 55.9836C145.043 55.9836 145.304 55.9475 145.586 55.8764L145.705 56.6102H145.706Z" fill="#13353F"/>
<path d="M154.396 56.6102C154.025 56.7174 153.667 56.7704 153.322 56.7704C152.74 56.7704 152.294 56.6321 151.985 56.357C151.675 56.0805 151.522 55.6723 151.522 55.1297V50.3538H150.408V49.5799H151.534L151.627 47.9122H152.501V49.5799H154.184V50.3538H152.501V55.0897C152.501 55.3829 152.585 55.6051 152.753 55.7563C152.921 55.9074 153.168 55.9836 153.494 55.9836C153.733 55.9836 153.993 55.9475 154.275 55.8764L154.395 56.6102H154.396Z" fill="#13353F"/>
<path d="M156.607 53.3946V53.4217C156.607 54.2395 156.806 54.8712 157.204 55.3169C157.601 55.7613 158.158 55.9835 158.872 55.9835C159.243 55.9835 159.574 55.9279 159.865 55.8168C160.156 55.7057 160.462 55.543 160.78 55.3298L161.164 55.9706C160.864 56.2018 160.51 56.393 160.105 56.5441C159.698 56.6953 159.27 56.7715 158.82 56.7715C158.175 56.7715 157.612 56.6268 157.131 56.3374C156.65 56.0481 156.283 55.6502 156.031 55.1438C155.78 54.6361 155.654 54.0625 155.654 53.423V52.7293C155.654 52.1157 155.776 51.5576 156.019 51.0551C156.261 50.5526 156.606 50.1547 157.052 49.8614C157.499 49.5682 158.022 49.4209 158.622 49.4209C159.514 49.4209 160.211 49.7167 160.716 50.3084C161.218 50.9001 161.471 51.7204 161.471 52.7694C161.471 53.0277 161.458 53.2357 161.431 53.3959H156.61L156.607 53.3946ZM158.621 50.2063C157.994 50.2063 157.504 50.426 157.151 50.8665C156.798 51.307 156.616 51.909 156.609 52.6738H160.582V52.5808C160.582 51.8418 160.412 51.2618 160.072 50.8393C159.732 50.4169 159.248 50.205 158.621 50.205V50.2063Z" fill="#13353F"/>
<path d="M165.998 56.7703C165.062 56.7703 164.333 56.459 163.812 55.8363C163.292 55.2137 163.031 54.3959 163.031 53.3818V52.7953C163.031 51.7903 163.289 50.9764 163.806 50.3537C164.323 49.7311 165.058 49.4197 166.012 49.4197C166.453 49.4197 166.851 49.4934 167.204 49.6394C167.556 49.7866 167.889 50.0062 168.198 50.2995L167.695 50.8601C167.456 50.647 167.205 50.4868 166.939 50.3796C166.674 50.2724 166.374 50.2194 166.039 50.2194C165.394 50.2194 164.895 50.4468 164.542 50.9002C164.189 51.3536 164.012 51.9763 164.012 52.7682V53.3948C164.012 54.2047 164.184 54.8352 164.529 55.2899C164.874 55.7433 165.368 55.9707 166.013 55.9707C166.34 55.9707 166.634 55.9177 166.895 55.8105C167.155 55.7033 167.418 55.5521 167.683 55.3571L168.134 55.9978C167.842 56.2291 167.513 56.4164 167.147 56.5585C166.78 56.7006 166.398 56.7716 166.002 56.7716L165.998 56.7703Z" fill="#13353F"/>
<path d="M173.298 49.4197C173.969 49.4197 174.51 49.6238 174.92 50.0333C175.331 50.4429 175.536 51.0203 175.536 51.7683V56.6114H174.556V51.8484C174.556 51.2968 174.428 50.8873 174.171 50.6211C173.915 50.3537 173.553 50.2207 173.085 50.2207C172.264 50.2207 171.597 50.6392 171.085 51.475V56.6114H170.105V46.7391H171.085V50.4752C171.615 49.7724 172.353 49.421 173.298 49.421V49.4197Z" fill="#13353F"/>
<path d="M181.325 49.4197C181.996 49.4197 182.537 49.6239 182.948 50.0334C183.358 50.4429 183.563 51.0203 183.563 51.7683V56.6114H182.584V51.8484C182.584 51.2968 182.455 50.8873 182.199 50.6212C181.942 50.3537 181.581 50.2207 181.112 50.2207C180.3 50.2207 179.633 50.6341 179.113 51.4621V56.6114H178.133V49.5799H178.968L179.047 50.5269C179.595 49.7879 180.354 49.4197 181.325 49.4197Z" fill="#13353F"/>
<path d="M188.704 49.4197C189.365 49.4197 189.931 49.5619 190.399 49.8474C190.867 50.1316 191.223 50.523 191.465 51.0216C191.708 51.5203 191.829 52.0887 191.829 52.7295V53.4232C191.829 54.073 191.708 54.6504 191.465 55.1581C191.223 55.6645 190.866 56.0611 190.399 56.3453C189.931 56.6295 189.365 56.7716 188.704 56.7716C187.715 56.7716 186.95 56.4642 186.412 55.8506C185.873 55.2369 185.604 54.4269 185.604 53.4219V52.7282C185.604 52.0874 185.723 51.519 185.961 51.0203C186.2 50.5217 186.551 50.1303 187.014 49.8461C187.477 49.5619 188.041 49.4185 188.704 49.4185V49.4197ZM188.704 50.2207C188.015 50.2207 187.489 50.4403 187.127 50.8808C186.766 51.3213 186.585 51.9324 186.585 52.7152V53.409C186.585 54.219 186.766 54.8494 187.127 55.3041C187.489 55.7575 188.015 55.9849 188.704 55.9849C189.383 55.9849 189.912 55.7575 190.286 55.3041C190.662 54.8507 190.849 54.219 190.849 53.409V52.7152C190.849 51.9414 190.662 51.3317 190.286 50.8873C189.911 50.4429 189.383 50.2207 188.704 50.2207Z" fill="#13353F"/>
<path d="M194.838 55.317C194.838 55.5482 194.882 55.7123 194.97 55.8105C195.059 55.9087 195.2 55.9578 195.393 55.9578C195.534 55.9578 195.672 55.9397 195.804 55.9048L195.936 56.6114C195.679 56.7187 195.415 56.7716 195.141 56.7716C194.743 56.7716 194.43 56.6579 194.2 56.4319C193.971 56.2045 193.855 55.8828 193.855 55.4643V46.7391H194.835V55.3183L194.838 55.317Z" fill="#13353F"/>
<path d="M200.479 49.4197C201.141 49.4197 201.707 49.5619 202.175 49.8474C202.643 50.1316 202.998 50.523 203.241 51.0216C203.483 51.5203 203.605 52.0887 203.605 52.7295V53.4232C203.605 54.073 203.483 54.6504 203.241 55.1581C202.998 55.6645 202.642 56.0611 202.175 56.3453C201.707 56.6295 201.141 56.7716 200.479 56.7716C199.49 56.7716 198.726 56.4642 198.187 55.8506C197.648 55.2369 197.379 54.4269 197.379 53.4219V52.7282C197.379 52.0874 197.498 51.519 197.737 51.0203C197.975 50.5217 198.327 50.1303 198.79 49.8461C199.253 49.5619 199.816 49.4185 200.479 49.4185V49.4197ZM200.479 50.2207C199.79 50.2207 199.264 50.4403 198.903 50.8808C198.541 51.3213 198.36 51.9324 198.36 52.7152V53.409C198.36 54.219 198.541 54.8494 198.903 55.3041C199.264 55.7575 199.79 55.9849 200.479 55.9849C201.159 55.9849 201.687 55.7575 202.062 55.3041C202.438 54.8507 202.625 54.219 202.625 53.409V52.7152C202.625 51.9414 202.438 51.3317 202.062 50.8873C201.686 50.4429 201.159 50.2207 200.479 50.2207Z" fill="#13353F"/>
<path d="M210.931 49.5399V56.7846C210.931 57.6113 210.677 58.2611 210.17 58.7327C209.662 59.2042 208.979 59.4393 208.122 59.4393C207.204 59.4393 206.4 59.2261 205.711 58.7985L206.056 58.1578C206.383 58.327 206.699 58.451 207.004 58.5311C207.309 58.6112 207.659 58.6513 208.057 58.6513C208.684 58.6513 209.163 58.4911 209.495 58.1707C209.826 57.8503 209.991 57.3749 209.991 56.7432V55.5961C209.435 56.2717 208.737 56.6102 207.898 56.6102C207.13 56.6102 206.496 56.3415 205.997 55.8028C205.498 55.2641 205.248 54.4437 205.248 53.3418V52.7152C205.248 51.9944 205.376 51.3859 205.633 50.8873C205.889 50.3886 206.224 50.0204 206.64 49.7802C207.055 49.5399 207.509 49.4197 208.004 49.4197C208.446 49.4197 208.83 49.4972 209.158 49.6536C209.485 49.8099 209.776 50.0424 210.032 50.3537L210.112 49.5399H210.933H210.931ZM208.017 55.8234C208.415 55.8234 208.777 55.7278 209.104 55.5366C209.431 55.3454 209.713 55.0767 209.951 54.7292V51.1934C209.722 50.864 209.464 50.6199 209.177 50.4597C208.889 50.2995 208.547 50.2194 208.151 50.2194C207.576 50.2194 207.113 50.4132 206.76 50.7994C206.408 51.187 206.231 51.8161 206.231 52.6868V53.3276C206.231 54.2086 206.392 54.8442 206.714 55.2356C207.036 55.6271 207.471 55.8221 208.019 55.8221L208.017 55.8234Z" fill="#13353F"/>
<path d="M214.177 59.4393C214.027 59.4393 213.879 59.4263 213.733 59.3992C213.587 59.3721 213.47 59.3372 213.382 59.292L213.528 58.6112C213.758 58.6642 213.978 58.6913 214.19 58.6913C214.508 58.6913 214.764 58.6047 214.958 58.4316C215.153 58.2585 215.325 57.9407 215.475 57.4782L215.753 56.6114H215.303L212.879 49.5799H213.913L215.992 55.8776L217.913 49.5799H218.893L216.337 57.5454C216.098 58.2753 215.81 58.7727 215.469 59.0401C215.129 59.3075 214.698 59.4406 214.177 59.4406V59.4393Z" fill="#13353F"/>
</svg>
