<svg width="58" height="58" viewBox="0 0 58 58" fill="none" xmlns="http://www.w3.org/2000/svg">
<rect width="58" height="58" rx="8" fill="#1797B0"/>
<path d="M29.471 14C19.7879 14 12.0017 20.2361 12.0017 27.9295C12.0017 31.2525 13.4638 34.2902 15.903 36.6823C15.047 40.0555 12.1866 43.0624 12.1524 43.0959C11.9983 43.2466 11.9555 43.4799 12.0496 43.6808C12.1352 43.8817 12.325 44 12.5476 44C17.0844 44 20.4296 41.8731 22.1759 40.5585C24.4104 41.3788 26.9024 41.857 29.5307 41.857C39.2138 41.857 47 35.6202 47 27.9878C47 20.3553 39.1541 14 29.471 14ZM20.6439 30.0725C19.4284 30.0725 18.4526 29.1182 18.4526 27.9898C18.4526 26.8614 19.4284 25.8468 20.6439 25.8468C21.8594 25.8468 22.8353 26.8011 22.8353 27.9898C22.8353 29.1785 21.9177 30.0725 20.6439 30.0725ZM29.471 30.0725C28.2555 30.0725 27.3413 29.1182 27.3413 27.9898C27.3413 26.8614 28.3171 25.8468 29.471 25.8468C30.6249 25.8468 31.6008 26.8011 31.6008 27.9898C31.6008 29.1785 30.69 30.0725 29.471 30.0725ZM38.1749 30.0725C36.9594 30.0725 35.9835 29.1182 35.9835 27.9898C35.9835 26.8614 36.9594 25.8468 38.1749 25.8468C39.3904 25.8468 40.3662 26.8011 40.3662 27.9898C40.3662 29.1785 39.4486 30.0725 38.1749 30.0725Z" fill="white"/>
</svg>
