<svg width="58" height="58" viewBox="0 0 58 58" fill="none" xmlns="http://www.w3.org/2000/svg">
<rect width="58" height="58" rx="8" fill="#1797B0"/>
<path d="M28.8472 36.4375C32.7182 36.4375 35.8548 33.3322 35.8548 29.5H30.0152C29.3728 29.5 28.8472 28.9797 28.8472 28.3438C28.8472 27.7078 29.3728 27.1875 30.0152 27.1875H35.8548V24.875H30.0152C29.3728 24.875 28.8472 24.3547 28.8472 23.7188C28.8472 23.0828 29.3728 22.5625 30.0152 22.5625H35.8548V20.185H30.0152C29.3702 20.185 28.8472 19.6672 28.8472 19.0287C28.8472 18.3902 29.3702 17.8725 30.0152 17.8725L35.8548 17.9375C35.8548 14.1053 32.7182 11 28.8472 11C24.9763 11 21.8396 14.1053 21.8396 17.9375V29.5C21.8396 33.3301 24.9128 36.4375 28.8472 36.4375ZM39.9426 24.875C38.9717 24.875 38.1907 25.6482 38.1907 26.5443V29.5C38.1907 34.7992 33.6671 39.068 28.2414 38.7283C23.4178 38.427 19.5038 33.9162 19.5038 29.1314V26.5443C19.5038 25.6482 18.7191 24.875 17.7519 24.875C16.7847 24.875 16 25.6482 16 26.5443V28.8677C16 35.347 20.6695 41.1239 27.0953 41.9983V44.5312H24.1755C22.8477 44.5312 21.7783 45.6282 21.8426 46.9572C21.871 47.552 22.409 48 23.0076 48H34.6869C35.287 48 35.8234 47.5508 35.8519 46.9572C35.9132 45.6297 34.8475 44.5312 33.5189 44.5312H30.5991V42.0908C36.8548 41.2432 41.6944 35.9244 41.6944 29.5V26.5443C41.6944 25.6482 40.9134 24.875 39.9426 24.875Z" fill="white"/>
</svg>
