<svg width="158" height="154" viewBox="0 0 158 154" fill="none" xmlns="http://www.w3.org/2000/svg">
<path d="M23.127 140.382C53.9768 158.537 103.99 158.541 134.857 140.382C165.725 122.223 165.703 92.7891 134.857 74.6338C104.011 56.4784 53.9947 56.4784 23.145 74.6338C-7.70481 92.7891 -7.71918 122.227 23.127 140.382Z" fill="#F5F5F5"/>
<path d="M16.5092 117.41L55.719 139.903C56.2011 140.146 56.734 140.273 57.2746 140.273C57.8152 140.273 58.3481 140.146 58.8302 139.903L133.064 97.3014C133.923 96.8087 133.923 96.0089 133.064 95.5162L93.8546 73.0229C93.373 72.7782 92.8399 72.6505 92.299 72.6505C91.7581 72.6505 91.2249 72.7782 90.7434 73.0229L16.5092 115.625C15.6506 116.117 15.6506 116.917 16.5092 117.41Z" fill="#37474F"/>
<path d="M38.333 127.393C39.0012 127.729 39.7396 127.904 40.4886 127.904C41.2376 127.904 41.976 127.729 42.6442 127.393C43.8369 126.707 43.8369 125.607 42.6442 124.911C41.9755 124.576 41.2373 124.402 40.4886 124.402C39.7399 124.402 39.0017 124.576 38.333 124.911C37.1403 125.597 37.1403 126.707 38.333 127.393Z" fill="#263238"/>
<path d="M55.7185 139.903L16.5087 117.41C15.7399 116.967 15.6609 116.281 16.268 115.789C15.8845 116.09 15.5692 116.469 15.3427 116.899C15.1161 117.33 14.9834 117.803 14.9531 118.288V119.741C14.9826 120.278 15.1388 120.8 15.4091 121.265C15.6793 121.73 16.0561 122.125 16.5087 122.419L55.7185 144.912C56.1979 145.161 56.7334 145.284 57.2741 145.269V140.274C56.7322 140.285 56.1966 140.157 55.7185 139.903Z" fill="#455A64"/>
<path d="M133.064 102.325C133.517 102.031 133.894 101.636 134.164 101.171C134.434 100.705 134.59 100.184 134.62 99.6471V98.1833C134.59 97.6982 134.457 97.2248 134.231 96.7942C134.004 96.3635 133.689 95.9852 133.305 95.684C133.912 96.1767 133.833 96.8623 133.064 97.3014L58.83 139.903C58.3504 140.151 57.815 140.274 57.2744 140.26V145.312C57.815 145.326 58.3504 145.204 58.83 144.955L133.064 102.325Z" fill="#263238"/>
<path d="M63.6508 134.405L27.563 113.697C27.0493 113.404 27.0493 112.922 27.563 112.626L86.9597 78.5464C87.2485 78.4003 87.568 78.3241 87.892 78.3241C88.216 78.3241 88.5355 78.4003 88.8243 78.5464L124.926 99.2545C125.44 99.5508 125.44 100.029 124.926 100.326L65.5046 134.437C65.2146 134.576 64.8958 134.645 64.5739 134.64C64.252 134.634 63.9359 134.554 63.6508 134.405Z" fill="#FAFAFA"/>
<path d="M60.7094 129.37L33.4056 113.693C32.8882 113.397 32.8882 112.918 33.4056 112.622L34.4546 112.018C34.744 111.872 35.0641 111.796 35.3887 111.796C35.7133 111.796 36.0334 111.872 36.3228 112.018L63.6266 127.696C64.144 127.989 64.144 128.471 63.6266 128.767L62.574 129.37C62.2851 129.516 61.9657 129.592 61.6417 129.592C61.3178 129.592 60.9984 129.516 60.7094 129.37Z" fill="#E6E6E6"/>
<path d="M63.5685 130.474L65.5552 129.335C65.6775 129.27 65.8201 129.254 65.9538 129.291C66.0874 129.327 66.2018 129.413 66.2737 129.531L67.1934 131.116C67.3407 131.373 67.2258 131.534 66.9312 131.473L63.6511 130.845C63.3386 130.788 63.3098 130.624 63.5685 130.474Z" fill="#1797B0"/>
<path d="M85.7208 82.5951C86.3995 82.2535 87.1496 82.0755 87.9105 82.0755C88.6713 82.0755 89.4214 82.2535 90.1002 82.5951C91.3109 83.2878 91.3073 84.4125 90.1002 85.0944C89.4214 85.436 88.6713 85.614 87.9105 85.614C87.1496 85.614 86.3995 85.436 85.7208 85.0944C84.5137 84.416 84.5137 83.2914 85.7208 82.5951Z" fill="#E6E6E6"/>
<path d="M113.247 97.5514C113.761 97.8478 113.761 98.3262 113.247 98.6225L107.815 101.754C107.526 101.9 107.205 101.976 106.881 101.976C106.556 101.976 106.236 101.9 105.947 101.754L88.8423 91.9424C88.3286 91.646 88.3286 91.1676 88.8423 90.8713L93.7463 88.0578L92.2877 85.5586L113.247 97.5514Z" fill="#E6E6E6"/>
<path d="M95.3889 89.3574L110.51 98.0334C110.765 98.1798 110.812 98.3905 110.611 98.5119C110.477 98.5665 110.333 98.5894 110.189 98.5788C110.045 98.5683 109.905 98.5246 109.781 98.4512L94.6596 89.7752C94.4009 89.6288 94.3578 89.4181 94.559 89.3003C94.6922 89.2449 94.8366 89.2212 94.9807 89.2311C95.1248 89.2411 95.2646 89.2843 95.3889 89.3574Z" fill="#FAFAFA"/>
<path d="M93.9262 90.1998L109.044 98.8758C109.303 99.0221 109.349 99.2328 109.148 99.3542C109.014 99.4088 108.869 99.4318 108.724 99.4212C108.58 99.4107 108.439 99.367 108.315 99.2935L93.1969 90.6175C92.9383 90.4711 92.8916 90.2605 93.0928 90.1426C93.2266 90.0872 93.3716 90.0635 93.5163 90.0734C93.6609 90.0833 93.8013 90.1266 93.9262 90.1998Z" fill="#FAFAFA"/>
<path d="M92.4633 91.0426L107.581 99.7186C107.84 99.8649 107.886 100.076 107.685 100.197C107.551 100.252 107.406 100.275 107.261 100.264C107.117 100.253 106.977 100.21 106.852 100.136L91.734 91.4603C91.4754 91.3139 91.4287 91.1033 91.6299 90.9854C91.7637 90.93 91.9087 90.9063 92.0534 90.9162C92.1981 90.9261 92.3384 90.9694 92.4633 91.0426Z" fill="#FAFAFA"/>
<path d="M82.8103 116.099C83.4891 115.758 84.2392 115.58 85 115.58C85.7609 115.58 86.511 115.758 87.1897 116.099C88.3969 116.792 88.3969 117.917 87.1897 118.599C86.5115 118.942 85.7612 119.121 85 119.121C84.2389 119.121 83.4886 118.942 82.8103 118.599C81.614 117.917 81.614 116.792 82.8103 116.099Z" fill="#E6E6E6"/>
<path d="M77.7011 114.007L72.7936 116.828C72.5048 116.974 72.1853 117.05 71.8613 117.05C71.5372 117.05 71.2178 116.974 70.929 116.828L53.8138 107.009C53.2964 106.713 53.2964 106.234 53.8138 105.938L59.2494 102.825C59.5382 102.678 59.8576 102.602 60.1817 102.602C60.5057 102.602 60.8252 102.678 61.114 102.825L82.0805 114.853L77.7011 114.007Z" fill="#E6E6E6"/>
<path d="M60.2993 104.431L75.417 113.107C75.6757 113.254 75.7224 113.464 75.5212 113.582C75.3873 113.638 75.2423 113.661 75.0977 113.651C74.953 113.642 74.8126 113.598 74.6877 113.525L59.57 104.849C59.3113 104.703 59.2646 104.492 59.4658 104.374C59.5997 104.319 59.7447 104.295 59.8893 104.305C60.034 104.315 60.1743 104.358 60.2993 104.431Z" fill="#FAFAFA"/>
<path d="M58.8331 105.274L73.9544 113.95C74.213 114.097 74.2562 114.307 74.055 114.425C73.9217 114.48 73.7773 114.504 73.6332 114.494C73.4891 114.484 73.3494 114.441 73.2251 114.368L58.1038 105.681C57.8487 105.535 57.802 105.324 58.0032 105.206C58.1372 105.153 58.2821 105.131 58.4262 105.142C58.5703 105.154 58.7096 105.199 58.8331 105.274Z" fill="#FAFAFA"/>
<path d="M57.3713 106.116L72.4926 114.792C72.7477 114.939 72.7944 115.149 72.5932 115.267C72.4599 115.323 72.3155 115.346 72.1714 115.336C72.0273 115.326 71.8876 115.283 71.7633 115.21L56.642 106.534C56.3833 106.388 56.3402 106.177 56.5414 106.059C56.6746 106.004 56.8191 105.98 56.9631 105.99C57.1072 106 57.247 106.043 57.3713 106.116Z" fill="#FAFAFA"/>
<path d="M65.2891 94.32C65.9674 93.9768 66.7177 93.7978 67.4788 93.7978C68.24 93.7978 68.9903 93.9768 69.6685 94.32C70.8792 95.0127 70.8792 96.1374 69.6685 96.8193C68.9898 97.1609 68.2396 97.3389 67.4788 97.3389C66.718 97.3389 65.9679 97.1609 65.2891 96.8193C64.082 96.1374 64.082 95.0127 65.2891 94.32Z" fill="#E6E6E6"/>
<path d="M88.4406 106.752C88.9544 107.048 88.9544 107.527 88.4406 107.823L84.4421 110.101C84.1526 110.247 83.8326 110.323 83.508 110.323C83.1833 110.323 82.8633 110.247 82.5739 110.101L69.8453 102.825C69.3315 102.528 69.3315 102.05 69.8453 101.754L73.3193 99.7792L71.8571 97.28L88.4406 106.752Z" fill="#E6E6E6"/>
<path d="M75.506 100.586L86.4671 106.874C86.7258 107.024 86.7725 107.231 86.5713 107.352C86.4372 107.407 86.2923 107.43 86.1479 107.42C86.0034 107.41 85.8631 107.367 85.7378 107.295L74.7624 101.004C74.5037 100.854 74.457 100.647 74.6582 100.526C74.7943 100.469 74.9421 100.444 75.0894 100.455C75.2368 100.466 75.3795 100.511 75.506 100.586Z" fill="#FAFAFA"/>
<path d="M74.0264 101.429L84.9911 107.716C85.2497 107.866 85.2964 108.073 85.0953 108.195C84.9612 108.249 84.8163 108.272 84.6719 108.262C84.5274 108.252 84.3871 108.21 84.2618 108.138L73.2971 101.847C73.042 101.697 72.9953 101.489 73.1965 101.368C73.3301 101.314 73.4746 101.291 73.6187 101.301C73.7627 101.312 73.9023 101.355 74.0264 101.429Z" fill="#FAFAFA"/>
<path d="M72.5646 102.271L83.5293 108.559C83.788 108.709 83.8311 108.916 83.6299 109.037C83.4964 109.091 83.3521 109.115 83.2082 109.105C83.0644 109.095 82.9247 109.052 82.8 108.98L71.8353 102.689C71.5767 102.539 71.5336 102.332 71.7347 102.211C71.8683 102.156 72.0129 102.133 72.1569 102.144C72.3009 102.154 72.4405 102.198 72.5646 102.271Z" fill="#FAFAFA"/>
<path d="M101.783 105.213C102.462 104.872 103.212 104.694 103.973 104.694C104.734 104.694 105.484 104.872 106.162 105.213C107.37 105.91 107.37 107.034 106.162 107.713C105.484 108.054 104.734 108.232 103.973 108.232C103.212 108.232 102.462 108.054 101.783 107.713C100.572 107.034 100.572 105.91 101.783 105.213Z" fill="#E6E6E6"/>
<path d="M96.675 103.121L94.6918 104.253C94.4024 104.399 94.0824 104.475 93.7578 104.475C93.4331 104.475 93.1131 104.399 92.8237 104.253L84.4888 99.4688C83.9751 99.1725 83.9751 98.6941 84.4888 98.3977L87.0037 96.9696C87.2931 96.8235 87.6131 96.7473 87.9377 96.7473C88.2624 96.7473 88.5824 96.8235 88.8718 96.9696L101.087 103.971L96.675 103.121Z" fill="#E6E6E6"/>
<path d="M88.257 97.8261L95.5716 102.025C95.8303 102.171 95.877 102.382 95.6758 102.5C95.5419 102.555 95.3969 102.579 95.2522 102.569C95.1076 102.559 94.9672 102.516 94.8423 102.443L87.5277 98.2438C87.2691 98.0974 87.2259 97.8868 87.4271 97.769C87.5604 97.7136 87.7048 97.6899 87.8489 97.6998C87.993 97.7097 88.1327 97.753 88.257 97.8261Z" fill="#FAFAFA"/>
<path d="M86.7944 98.6831L94.109 102.882C94.3676 103.028 94.4107 103.239 94.2095 103.357C94.0763 103.412 93.9319 103.436 93.7878 103.426C93.6437 103.416 93.5039 103.373 93.3797 103.3L86.0651 99.1008C85.8064 98.9545 85.7597 98.7438 85.9609 98.626C86.0948 98.5705 86.2398 98.5469 86.3844 98.5568C86.5291 98.5667 86.6695 98.6099 86.7944 98.6831Z" fill="#FAFAFA"/>
<path d="M43.4032 106.877C44.0813 106.535 44.8308 106.357 45.5911 106.357C46.3513 106.357 47.1008 106.535 47.779 106.877C48.9897 107.573 48.9897 108.698 47.779 109.376C47.1008 109.718 46.3513 109.896 45.5911 109.896C44.8308 109.896 44.0813 109.718 43.4032 109.376C42.1924 108.698 42.1924 107.573 43.4032 106.877Z" fill="#E6E6E6"/>
<path d="M60.6839 115.974C61.1976 116.271 61.1976 116.749 60.6839 117.045L58.1691 118.491C57.8797 118.638 57.5596 118.714 57.235 118.714C56.9104 118.714 56.5903 118.638 56.3009 118.491L49.439 114.535C48.9253 114.239 48.9253 113.761 49.439 113.464L51.415 112.322L49.9564 109.823L60.6839 115.974Z" fill="#E6E6E6"/>
<path d="M53.5268 113.061L59.1241 116.274C59.3828 116.421 59.4295 116.631 59.2283 116.749C59.0944 116.804 58.9494 116.828 58.8048 116.818C58.6601 116.808 58.5197 116.765 58.3948 116.692L52.7975 113.479C52.5389 113.332 52.4921 113.122 52.6933 113.004C52.8272 112.948 52.9722 112.925 53.1169 112.935C53.2615 112.944 53.4019 112.988 53.5268 113.061Z" fill="#FAFAFA"/>
<path d="M52.0652 113.893L57.6625 117.106C57.9211 117.253 57.9678 117.463 57.7631 117.581C57.6298 117.637 57.4854 117.66 57.3413 117.65C57.1972 117.64 57.0575 117.597 56.9332 117.524L51.3323 114.311C51.0772 114.164 51.0305 113.954 51.2317 113.836C51.3655 113.78 51.5105 113.757 51.6552 113.767C51.7999 113.777 51.9402 113.82 52.0652 113.893Z" fill="#FAFAFA"/>
<path d="M110.448 86.0939C110.596 86.1679 110.759 86.2065 110.924 86.2065C111.09 86.2065 111.253 86.1679 111.4 86.0939C111.459 86.076 111.511 86.0398 111.547 85.9906C111.584 85.9414 111.604 85.8819 111.604 85.8207C111.604 85.7596 111.584 85.7 111.547 85.6509C111.511 85.6017 111.459 85.5655 111.4 85.5476C111.253 85.4718 111.09 85.4323 110.924 85.4323C110.759 85.4323 110.596 85.4718 110.448 85.5476C110.39 85.5655 110.338 85.6017 110.301 85.6509C110.265 85.7 110.245 85.7596 110.245 85.8207C110.245 85.8819 110.265 85.9414 110.301 85.9906C110.338 86.0398 110.39 86.076 110.448 86.0939Z" fill="#263238"/>
<path d="M111.973 90.3926C112.268 90.5405 112.595 90.6175 112.926 90.6175C113.258 90.6175 113.584 90.5405 113.88 90.3926C114.405 90.0891 114.405 89.6 113.88 89.2965C113.584 89.1486 113.258 89.0716 112.926 89.0716C112.595 89.0716 112.268 89.1486 111.973 89.2965C111.434 89.6142 111.434 90.0891 111.973 90.3926Z" fill="#263238"/>
<path d="M110.628 88.486C110.987 88.2861 110.958 87.9469 110.585 87.7327L104.312 84.1337C104.11 84.0278 103.886 83.9704 103.658 83.966C103.429 83.9617 103.203 84.0106 102.997 84.1087C102.638 84.3122 102.667 84.6479 103.04 84.8621L109.313 88.4646C109.515 88.5719 109.739 88.6298 109.968 88.6335C110.196 88.6373 110.423 88.5867 110.628 88.486Z" fill="#263238"/>
<path d="M33.6393 89.3682L31.649 88.2257C31.6094 88.2095 31.5765 88.1806 31.5556 88.1436L31.1963 87.508L32.3783 86.8297L32.3423 86.9332L33.6393 89.3682Z" fill="#1797B0"/>
<path opacity="0.2" d="M33.6393 89.3682L31.649 88.2257C31.6094 88.2095 31.5765 88.1806 31.5556 88.1436L31.1963 87.508L32.3783 86.8297L32.3423 86.9332L33.6393 89.3682Z" fill="black"/>
<path d="M32.1914 86.926L33.571 89.2968C33.5908 89.3285 33.6192 89.354 33.653 89.3705C33.6867 89.387 33.7244 89.3938 33.7618 89.3901C33.7992 89.3863 33.8348 89.3723 33.8646 89.3495C33.8943 89.3267 33.9171 89.2961 33.9302 89.2611L35.3888 85.0873L32.1914 86.926Z" fill="#1797B0"/>
<path d="M61.3631 57.0028C61.3484 56.6711 61.2551 56.3476 61.091 56.0585C60.9268 55.7694 60.6963 55.5229 60.4182 55.339L59.635 54.8891C59.3369 54.7377 59.007 54.6588 58.6722 54.6588C58.3375 54.6588 58.0075 54.7377 57.7094 54.8891L26.371 72.8588C26.0906 73.04 25.8572 73.2845 25.6898 73.5724C25.5225 73.8603 25.426 74.1834 25.4082 74.5154V86.6154C25.4266 86.9473 25.5233 87.2702 25.6906 87.558C25.8579 87.8458 26.091 88.0904 26.371 88.2721L27.1578 88.7219C27.4558 88.8716 27.785 88.9496 28.1188 88.9496C28.4527 88.9496 28.7819 88.8716 29.0799 88.7219L60.4901 70.6916C61.3559 70.1988 61.3631 69.7097 61.3631 69.0992V57.0028Z" fill="#1797B0"/>
<path opacity="0.2" d="M25.3906 86.6226C25.409 86.9545 25.5057 87.2774 25.673 87.5652C25.8403 87.853 26.0734 88.0976 26.3534 88.2793L27.1402 88.7292C27.4115 88.8647 27.7086 88.9418 28.012 88.9554C28.3153 88.9689 28.6182 88.9186 28.9006 88.8077C28.4479 88.9791 28.103 88.722 28.103 88.1758V76.0758C28.115 75.7431 28.2114 75.4189 28.3833 75.1332L25.6744 73.5801C25.4996 73.8647 25.4018 74.1894 25.3906 74.5227V86.6226Z" fill="black"/>
<path opacity="0.4" d="M61.3318 56.7313C61.2204 56.3243 60.8468 56.1958 60.4013 56.4493L29.063 74.419C28.7792 74.5946 28.5464 74.8407 28.3875 75.133L25.6787 73.5799C25.8399 73.2881 26.0736 73.0422 26.3577 72.8658L57.6889 54.8962C57.9884 54.7472 58.3186 54.6697 58.6535 54.6697C58.9884 54.6697 59.3187 54.7472 59.6181 54.8962L60.4193 55.3389C60.6586 55.4972 60.8629 55.7023 61.0198 55.9417C61.1767 56.1812 61.2829 56.4498 61.3318 56.7313Z" fill="white"/>
<path d="M30.6901 76.2862L58.2634 60.4338C58.5867 60.2481 58.849 60.3338 58.849 60.623C58.8248 60.8012 58.7593 60.9713 58.6577 61.12C58.5561 61.2687 58.4211 61.3919 58.2634 61.4799L30.7008 77.3323C30.3775 77.518 30.1152 77.4359 30.1152 77.1467C30.1382 76.9691 30.202 76.7991 30.3017 76.6499C30.4014 76.5006 30.5342 76.3762 30.6901 76.2862Z" fill="white"/>
<path d="M30.6891 81.6849L53.5274 68.5781C53.8471 68.3924 54.1094 68.4781 54.1094 68.7637C54.0853 68.9419 54.0203 69.1122 53.9194 69.2615C53.8185 69.4107 53.6843 69.5348 53.5274 69.6242L30.6891 82.731C30.3658 82.9167 30.1035 82.831 30.1035 82.5418C30.1271 82.3635 30.1924 82.1931 30.2941 82.0443C30.3957 81.8955 30.531 81.7725 30.6891 81.6849Z" fill="white"/>
<path d="M30.6891 84.3123L57.5726 68.8598C57.8924 68.6741 58.1546 68.7598 58.1546 69.049C58.1306 69.2267 58.0656 69.3965 57.9646 69.5452C57.8637 69.6938 57.7295 69.8173 57.5726 69.9059L30.6891 85.3584C30.3658 85.5405 30.1035 85.4584 30.1035 85.1692C30.1271 84.9909 30.1924 84.8205 30.2941 84.6718C30.3957 84.523 30.531 84.3999 30.6891 84.3123Z" fill="white"/>
<path d="M30.6891 78.9245L57.5726 63.4719C57.8924 63.2898 58.1546 63.372 58.1546 63.6612C58.1306 63.8394 58.0656 64.0097 57.9647 64.1589C57.8637 64.3081 57.7296 64.4322 57.5726 64.5216L30.6891 79.9742C30.3658 80.1598 30.1035 80.0742 30.1035 79.785C30.1277 79.6063 30.1931 79.4357 30.2947 79.2864C30.3963 79.1372 30.5313 79.0133 30.6891 78.9245Z" fill="white"/>
<path d="M33.6393 29.7751L31.649 28.6326C31.6094 28.6164 31.5765 28.5875 31.5556 28.5504L31.1963 27.9149L32.3783 27.2365L32.3423 27.3401L33.6393 29.7751Z" fill="#1797B0"/>
<path opacity="0.2" d="M33.6393 29.7751L31.649 28.6326C31.6094 28.6164 31.5765 28.5875 31.5556 28.5504L31.1963 27.9149L32.3783 27.2365L32.3423 27.3401L33.6393 29.7751Z" fill="black"/>
<path d="M32.1914 27.3328L33.571 29.7035C33.5916 29.7341 33.6202 29.7585 33.6538 29.7742C33.6873 29.7899 33.7245 29.7962 33.7614 29.7926C33.7982 29.7889 33.8334 29.7754 33.8632 29.7534C33.8929 29.7314 33.9161 29.7018 33.9302 29.6678L35.3888 25.4905L32.1914 27.3328Z" fill="#1797B0"/>
<path d="M58.1193 2.33682C58.1015 2.00482 58.005 1.68171 57.8377 1.39382C57.6704 1.10593 57.437 0.861397 57.1565 0.680166L56.3733 0.2303C56.0752 0.078928 55.7453 0 55.4105 0C55.0757 0 54.7458 0.078928 54.4477 0.2303L26.3534 16.3434C26.073 16.5246 25.8396 16.7691 25.6723 17.057C25.5049 17.3449 25.4084 17.668 25.3906 18V27.0259C25.4084 27.3579 25.5049 27.681 25.6723 27.9689C25.8396 28.2568 26.073 28.5013 26.3534 28.6826L27.1402 29.1324C27.4377 29.2838 27.7671 29.3627 28.1013 29.3627C28.4354 29.3627 28.7648 29.2838 29.0623 29.1324L57.2463 12.9551C58.1121 12.4624 58.1193 11.9732 58.1193 11.3627V2.33682Z" fill="#1797B0"/>
<path opacity="0.2" d="M25.3906 27.026C25.4084 27.358 25.5049 27.6811 25.6723 27.969C25.8396 28.2569 26.073 28.5014 26.3534 28.6827L27.1402 29.1325C27.4113 29.2687 27.7082 29.3464 28.0116 29.3605C28.315 29.3747 28.6179 29.325 28.9006 29.2147C28.4479 29.3825 28.103 29.1254 28.103 28.5827V19.5532C28.115 19.2206 28.2114 18.8963 28.3833 18.6106L25.6744 17.0575C25.5 17.3423 25.4023 17.6669 25.3906 18.0001V27.026Z" fill="black"/>
<path opacity="0.4" d="M58.0877 2.06541C57.9763 1.65839 57.6027 1.52986 57.1572 1.78335L29.063 17.9C28.7783 18.0746 28.5453 18.3209 28.3875 18.6141L25.6787 17.061C25.8388 16.7684 26.0728 16.5223 26.3577 16.3469L54.4448 0.230244C54.7442 0.0813153 55.0745 0.00377655 55.4094 0.00377655C55.7443 0.00377655 56.0745 0.0813153 56.374 0.230244L57.1572 0.68011C57.3986 0.836348 57.6056 1.0397 57.7655 1.27784C57.9255 1.51597 58.0351 1.78391 58.0877 2.06541Z" fill="white"/>
<path d="M30.6891 22.0881L50.2796 10.8379C50.603 10.6522 50.8652 10.7379 50.8652 11.0271C50.8405 11.2051 50.7749 11.375 50.6733 11.5236C50.5717 11.6722 50.437 11.7956 50.2796 11.884L30.6891 23.1342C30.3658 23.3199 30.1035 23.2342 30.1035 22.9486C30.1277 22.7699 30.1931 22.5993 30.2947 22.45C30.3963 22.3008 30.5313 22.1769 30.6891 22.0881Z" fill="white"/>
<path d="M30.6898 24.7157L54.3112 11.1197C54.6346 10.9341 54.8968 11.0197 54.8968 11.3089C54.8727 11.4871 54.8072 11.6572 54.7056 11.8059C54.604 11.9546 54.469 12.0778 54.3112 12.1658L30.6754 25.7618C30.3521 25.9475 30.0898 25.8618 30.0898 25.5726C30.1155 25.3931 30.1832 25.2221 30.2874 25.0733C30.3916 24.9245 30.5294 24.802 30.6898 24.7157Z" fill="white"/>
<path d="M30.6891 19.3317L54.3105 5.7357C54.6339 5.55004 54.8961 5.63216 54.8961 5.92136C54.872 6.09997 54.8065 6.2706 54.7049 6.41988C54.6033 6.56916 54.4684 6.69304 54.3105 6.78182L30.6891 20.3778C30.3658 20.5634 30.1035 20.4778 30.1035 20.1886C30.1277 20.0104 30.1931 19.8403 30.2948 19.6916C30.3964 19.5429 30.5314 19.4197 30.6891 19.3317Z" fill="white"/>
<path d="M80.7633 17.4429L78.773 16.3004C78.7335 16.2842 78.7006 16.2553 78.6796 16.2183L78.3203 15.5828L79.5023 14.9044L79.4592 14.9937L80.7633 17.4429Z" fill="#263238"/>
<path d="M79.3154 14.9939L80.695 17.3647C80.7156 17.3952 80.7443 17.4197 80.7778 17.4353C80.8113 17.451 80.8485 17.4574 80.8854 17.4537C80.9223 17.4501 80.9574 17.4365 80.9872 17.4145C81.0169 17.3926 81.0401 17.363 81.0543 17.329L82.5129 13.1516L79.3154 14.9939Z" fill="#37474F"/>
<path d="M85.8156 2.35115C85.7946 2.02193 85.6962 1.70217 85.5284 1.41757C85.3606 1.13296 85.1279 0.891422 84.8491 0.712349L84.066 0.262482C83.767 0.114132 83.4373 0.0369072 83.1031 0.0369072C82.7689 0.0369072 82.4393 0.114132 82.1403 0.262482L55.4472 15.5294C55.1667 15.7106 54.9333 15.9551 54.766 16.243C54.5987 16.5309 54.5022 16.854 54.4844 17.186V25.0409C54.5022 25.3728 54.5987 25.696 54.766 25.9839C54.9333 26.2717 55.1667 26.5163 55.4472 26.6975L56.2304 27.1474C56.5285 27.2987 56.8585 27.3777 57.1932 27.3777C57.528 27.3777 57.8579 27.2987 58.156 27.1474L84.9426 11.7948C85.8084 11.3056 85.8156 10.8129 85.8156 10.2024V2.35115Z" fill="#37474F"/>
<path d="M54.4844 25.0301C54.5022 25.3621 54.5987 25.6852 54.766 25.9731C54.9333 26.261 55.1667 26.5056 55.4472 26.6868L56.2304 27.1367C56.5014 27.2728 56.7984 27.3505 57.1017 27.3647C57.4051 27.3788 57.7081 27.3291 57.9908 27.2188C57.5381 27.3866 57.1932 27.1295 57.1932 26.5868V18.732C57.2048 18.3988 57.3026 18.0742 57.477 17.7894L54.7682 16.2363C54.5938 16.5211 54.496 16.8457 54.4844 17.1789V25.0301Z" fill="#263238"/>
<path d="M85.7829 2.07977C85.6716 1.67274 85.2979 1.54421 84.8524 1.79771L58.1557 17.086C57.8701 17.2605 57.6358 17.5068 57.4767 17.8001L54.7715 16.247C54.9303 15.9546 55.1631 15.7085 55.4469 15.5329L82.14 0.244595C82.4395 0.0956662 82.7698 0.0181274 83.1046 0.0181274C83.4395 0.0181274 83.7698 0.0956662 84.0692 0.244595L84.8488 0.712314C85.0894 0.865734 85.2962 1.066 85.4567 1.30102C85.6173 1.53604 85.7282 1.80095 85.7829 2.07977Z" fill="#455A64"/>
<path d="M59.7793 19.3104L77.9759 8.88488C78.2992 8.70279 78.5615 8.78491 78.5615 9.07411C78.5378 9.25243 78.4726 9.42279 78.3709 9.57157C78.2692 9.72036 78.1339 9.84344 77.9759 9.931L59.7793 20.3493C59.4595 20.5314 59.1973 20.4493 59.1973 20.1601C59.2218 19.9835 59.2871 19.8149 59.3881 19.6675C59.489 19.5201 59.6229 19.3978 59.7793 19.3104Z" fill="#1797B0"/>
<path d="M59.7793 21.9347L82.0247 9.17061C82.3445 8.98495 82.6067 9.06707 82.6067 9.35627C82.5827 9.53447 82.5177 9.70478 82.4168 9.854C82.3158 10.0032 82.1817 10.1273 82.0247 10.2167L59.7793 22.9844C59.4595 23.1665 59.1973 23.0843 59.1973 22.7951C59.2213 22.6169 59.2863 22.4466 59.3872 22.2974C59.4882 22.1482 59.6223 22.0241 59.7793 21.9347Z" fill="#1797B0"/>
<path d="M33.6393 58.3808L31.649 57.2383C31.6094 57.2221 31.5765 57.1932 31.5556 57.1561L31.1963 56.5206L32.3783 55.8422L32.3423 55.9458L33.6393 58.3808Z" fill="#1797B0"/>
<path opacity="0.2" d="M33.6393 58.3808L31.649 57.2383C31.6094 57.2221 31.5765 57.1932 31.5556 57.1561L31.1963 56.5206L32.3783 55.8422L32.3423 55.9458L33.6393 58.3808Z" fill="black"/>
<path d="M32.1914 55.9389L33.571 58.3096C33.5913 58.3403 33.6197 58.3649 33.653 58.3809C33.6864 58.3968 33.7234 58.4035 33.7603 58.4002C33.7971 58.3969 33.8324 58.3838 33.8623 58.3622C33.8922 58.3405 33.9157 58.3113 33.9302 58.2775L35.3888 54.1001L32.1914 55.9389Z" fill="#1797B0"/>
<path d="M47.0714 36.7945C47.053 36.4626 46.9563 36.1397 46.789 35.8519C46.6217 35.5641 46.3886 35.3195 46.1086 35.1378L45.329 34.6879C45.03 34.5396 44.7003 34.4624 44.3661 34.4624C44.032 34.4624 43.7023 34.5396 43.4033 34.6879L26.3564 44.46C26.0763 44.6417 25.8432 44.8863 25.6759 45.1741C25.5087 45.4619 25.4119 45.7848 25.3936 46.1167V55.6353C25.4119 55.9672 25.5087 56.2901 25.6759 56.5779C25.8432 56.8657 26.0763 57.1103 26.3564 57.292L27.1432 57.7418C27.4411 57.8915 27.7703 57.9695 28.1042 57.9695C28.438 57.9695 28.7672 57.8915 29.0652 57.7418L46.202 47.9019C47.0678 47.4127 47.075 46.92 47.075 46.3131L47.0714 36.7945Z" fill="#1797B0"/>
<path opacity="0.2" d="M25.3906 55.6353C25.409 55.9672 25.5057 56.2901 25.673 56.5779C25.8403 56.8657 26.0734 57.1103 26.3534 57.2919L27.1402 57.7418C27.4115 57.8774 27.7086 57.9545 28.012 57.968C28.3153 57.9816 28.6182 57.9312 28.9006 57.8204C28.4479 57.9917 28.103 57.7347 28.103 57.1884V47.6734C28.1145 47.3406 28.211 47.0163 28.3833 46.7308L25.6744 45.1741C25.5 45.4589 25.4023 45.7835 25.3906 46.1167V55.6353Z" fill="black"/>
<path opacity="0.4" d="M47.0404 36.5231C46.929 36.1161 46.5554 35.9876 46.1135 36.2411L29.063 46.0167C28.7783 46.1913 28.5453 46.4377 28.3875 46.7308L25.6787 45.1777C25.8388 44.8851 26.0728 44.639 26.3577 44.4636L43.4011 34.6879C43.7001 34.5396 44.0297 34.4624 44.3639 34.4624C44.6981 34.4624 45.0277 34.5396 45.3267 34.6879L46.1135 35.1414C46.3543 35.2971 46.5606 35.4999 46.72 35.7375C46.8793 35.975 46.9884 36.2423 47.0404 36.5231Z" fill="white"/>
<path d="M30.6898 50.6974L39.2223 45.7846C39.542 45.6025 39.8043 45.6846 39.8043 45.9738C39.7802 46.152 39.7152 46.3223 39.6143 46.4715C39.5134 46.6208 39.3792 46.7449 39.2223 46.8343L30.6754 51.7435C30.3521 51.9292 30.0898 51.8435 30.0898 51.5543C30.115 51.3747 30.1824 51.2034 30.2867 51.0545C30.3909 50.9056 30.529 50.7833 30.6898 50.6974Z" fill="white"/>
<path d="M30.6891 53.3252L43.2812 46.056C43.6046 45.8703 43.8632 45.956 43.8632 46.2452C43.84 46.4232 43.7753 46.5933 43.6743 46.7421C43.5732 46.8908 43.4386 47.0141 43.2812 47.1021L30.6891 54.3571C30.3658 54.5392 30.1035 54.457 30.1035 54.1678C30.1292 53.9921 30.1955 53.8245 30.297 53.6784C30.3986 53.5322 30.5328 53.4114 30.6891 53.3252Z" fill="white"/>
<path d="M30.6891 47.9376L43.2812 40.7004C43.6046 40.5183 43.8632 40.6004 43.8632 40.8896C43.84 41.0681 43.7753 41.2387 43.6743 41.3881C43.5733 41.5374 43.4387 41.6614 43.2812 41.7501L30.6891 48.9837C30.3658 49.1693 30.1035 49.0836 30.1035 48.798C30.1277 48.6194 30.1931 48.4488 30.2947 48.2995C30.3963 48.1502 30.5313 48.0263 30.6891 47.9376Z" fill="white"/>
<path d="M82.6921 68.6208L81.837 67.0213L82.5268 65.0469V63.8365L80.418 65.0469V66.2572L81.3233 67.8139C81.3369 67.839 81.3583 67.8591 81.3844 67.8711L82.6921 68.6208Z" fill="#1797B0"/>
<path d="M82.6931 68.6137L81.3962 67.8711C81.3712 67.8593 81.35 67.8408 81.3351 67.8176L81.0908 67.3963L81.7519 67.0178L82.6572 68.5745C82.6672 68.5892 82.6793 68.6024 82.6931 68.6137Z" fill="#E0E0E0"/>
<path d="M86.0163 57.717C86.002 57.5018 85.9374 57.293 85.8277 57.107C85.7179 56.9211 85.566 56.7632 85.384 56.6458L84.8666 56.3495C84.6712 56.251 84.4552 56.1997 84.2361 56.1997C84.0171 56.1997 83.801 56.251 83.6056 56.3495L71.6889 63.1939C71.5069 63.3112 71.355 63.4691 71.2453 63.6551C71.1355 63.841 71.0709 64.0499 71.0566 64.265V70.3918C71.0709 70.6069 71.1355 70.8157 71.2453 71.0017C71.355 71.1876 71.5069 71.3456 71.6889 71.4629L72.2027 71.7592C72.3987 71.8577 72.6153 71.9091 72.835 71.9091C73.0547 71.9091 73.2713 71.8577 73.4673 71.7592L81.7519 67.0071L82.6572 68.5637C82.6697 68.5867 82.6888 68.6055 82.712 68.6177C82.7352 68.6299 82.7616 68.635 82.7877 68.6323C82.8139 68.6297 82.8386 68.6193 82.8589 68.6027C82.8791 68.586 82.894 68.5638 82.9015 68.5387L83.8571 65.7967L85.384 64.9184C85.5679 64.7989 85.721 64.638 85.8308 64.4489C85.9407 64.2597 86.0042 64.0475 86.0163 63.8294V57.717Z" fill="#E6E6E6"/>
<path d="M71.0566 70.3881C71.0709 70.6032 71.1355 70.8121 71.2453 70.998C71.355 71.184 71.5069 71.3419 71.6889 71.4592L72.2027 71.7556C72.3809 71.8449 72.5762 71.8956 72.7757 71.9042C72.9751 71.9128 73.1741 71.8792 73.3595 71.8056C73.0613 71.9198 72.835 71.752 72.835 71.395V65.2825C72.8433 65.0646 72.9062 64.8523 73.0182 64.6648L71.2399 63.6437C71.1279 63.8312 71.0649 64.0435 71.0566 64.2614V70.3881Z" fill="#E0E0E0"/>
<path d="M85.9948 57.5383C85.9194 57.2705 85.6751 57.1813 85.3841 57.3526L73.4674 64.197C73.2793 64.3104 73.1255 64.4719 73.0219 64.6648L71.2256 63.6436C71.3312 63.4523 71.4846 63.2912 71.6711 63.1759L83.5842 56.3315C83.781 56.2357 83.9973 56.1858 84.2165 56.1858C84.4357 56.1858 84.6519 56.2357 84.8488 56.3315L85.3661 56.6279C85.528 56.7288 85.6673 56.8617 85.7754 57.0183C85.8836 57.1749 85.9582 57.3519 85.9948 57.5383Z" fill="#F0F0F0"/>
<path d="M76.3159 65.3822C76.0704 65.5408 75.8659 65.7547 75.7192 66.0066C75.5725 66.2585 75.4877 66.5412 75.4717 66.8318C75.4717 67.3674 75.8309 67.5852 76.3159 67.3174C76.5614 67.1578 76.7657 66.9432 76.9123 66.6908C77.059 66.4384 77.1439 66.1553 77.1602 65.8642C77.1602 65.3323 76.7794 65.1145 76.3159 65.3822Z" fill="white"/>
<path d="M79.4234 63.5935C79.1779 63.753 78.9736 63.9677 78.827 64.2201C78.6803 64.4725 78.5954 64.7556 78.5791 65.0466C78.5791 65.5786 78.9599 65.7964 79.4234 65.5286C79.6689 65.3701 79.8734 65.1561 80.0201 64.9043C80.1668 64.6524 80.2516 64.3697 80.2676 64.0791C80.2676 63.5506 79.8904 63.3257 79.4234 63.5935Z" fill="white"/>
<path d="M82.5347 61.8051C82.2889 61.9643 82.0843 62.1788 81.9376 62.4313C81.7909 62.6838 81.7062 62.9671 81.6904 63.2583C81.6904 63.7938 82.0677 64.008 82.5347 63.7438C82.7797 63.5841 82.9834 63.3694 83.1294 63.1169C83.2755 62.8645 83.3597 62.5815 83.3754 62.2907C83.3754 61.7659 82.9981 61.5409 82.5347 61.8051Z" fill="white"/>
<path d="M80.8028 44.0813L79.4987 41.6463L80.5477 38.6365V36.7942L77.3359 38.6365V40.4788L78.7191 42.8567C78.7401 42.8937 78.773 42.9226 78.8125 42.9388L80.8028 44.0813Z" fill="#1797B0"/>
<path d="M78.8098 42.9389C78.7691 42.9232 78.7349 42.8943 78.7128 42.8568L78.3535 42.2213L79.3594 41.6429L80.739 44.0101C80.7549 44.0405 80.7784 44.0663 80.8073 44.085L78.8098 42.9389Z" fill="#263238"/>
<path d="M85.8466 27.4688C85.8282 27.1369 85.7315 26.814 85.5642 26.5262C85.3969 26.2384 85.1638 25.9938 84.8838 25.8121L84.1006 25.348C83.8016 25.1996 83.4719 25.1224 83.1377 25.1224C82.8036 25.1224 82.4739 25.1996 82.1749 25.348L58.1044 39.151C57.824 39.3322 57.5906 39.5768 57.4232 39.8647C57.2559 40.1526 57.1594 40.4757 57.1416 40.8077V50.137C57.1614 50.4691 57.2587 50.7919 57.4258 51.0801C57.5929 51.3683 57.8253 51.6138 58.1044 51.7973L58.8876 52.2471C59.1866 52.3955 59.5162 52.4727 59.8504 52.4727C60.1846 52.4727 60.5142 52.3955 60.8133 52.2471L79.3511 41.6253L80.7271 43.996C80.7478 44.0266 80.7764 44.051 80.8099 44.0667C80.8434 44.0824 80.8806 44.0887 80.9175 44.0851C80.9544 44.0814 80.9896 44.0679 81.0193 44.0459C81.049 44.0239 81.0722 43.9943 81.0864 43.9603L82.5414 39.7865L84.8658 38.4441C85.1457 38.2622 85.3786 38.0175 85.5459 37.7298C85.7131 37.442 85.81 37.1192 85.8286 36.7874L85.8466 27.4688Z" fill="#37474F"/>
<path d="M62.998 42.0254L82.9837 30.5253C83.3071 30.3396 83.5693 30.4253 83.5693 30.7145C83.5452 30.8926 83.4797 31.0628 83.3781 31.2115C83.2765 31.3602 83.1415 31.4834 82.9837 31.5714L62.998 43.0715C62.6783 43.2572 62.416 43.1751 62.416 42.8859C62.4401 42.7077 62.5051 42.5374 62.606 42.3882C62.7069 42.2389 62.8411 42.1148 62.998 42.0254Z" fill="#1797B0"/>
<path d="M62.998 44.6528L78.2558 35.8983C78.5792 35.7126 78.8414 35.7983 78.8414 36.0875C78.8178 36.2658 78.7526 36.4362 78.6509 36.5849C78.5492 36.7337 78.4139 36.8568 78.2558 36.9444L62.998 45.6989C62.6783 45.8846 62.416 45.7989 62.416 45.5133C62.4401 45.3351 62.5051 45.1648 62.606 45.0155C62.7069 44.8663 62.8411 44.7422 62.998 44.6528Z" fill="#1797B0"/>
<path d="M62.998 47.2806L82.3047 36.1803C82.6245 35.9982 82.8867 36.0803 82.8867 36.3695C82.8627 36.5477 82.7977 36.718 82.6968 36.8672C82.5958 37.0165 82.4617 37.1406 82.3047 37.23L62.998 48.3267C62.6783 48.5123 62.416 48.4267 62.416 48.1375C62.44 47.9597 62.5051 47.7899 62.606 47.6413C62.707 47.4926 62.8411 47.3692 62.998 47.2806Z" fill="#1797B0"/>
<path d="M57.1455 50.1511C57.1653 50.4831 57.2626 50.806 57.4297 51.0942C57.5968 51.3823 57.8292 51.6279 58.1083 51.8113L58.8915 52.2612C59.1636 52.3967 59.4614 52.4735 59.7654 52.4864C60.0695 52.4993 60.3728 52.4481 60.6555 52.3362C60.1992 52.5076 59.8543 52.2541 59.8543 51.7078V42.3748C59.866 42.0417 59.9637 41.717 60.1382 41.4323L57.4293 39.8792C57.2549 40.1639 57.1571 40.4885 57.1455 40.8217V50.1511Z" fill="#263238"/>
<path d="M85.814 27.1976C85.7026 26.7905 85.329 26.662 84.8835 26.9155L60.813 40.7221C60.5273 40.8966 60.2931 41.1429 60.134 41.4362L57.4287 39.8831C57.5875 39.5907 57.8203 39.3446 58.1041 39.169L82.1746 25.3624C82.4736 25.214 82.8033 25.1368 83.1375 25.1368C83.4716 25.1368 83.8013 25.214 84.1003 25.3624L84.8871 25.8158C85.1277 25.9717 85.334 26.1746 85.4933 26.4121C85.6526 26.6496 85.7617 26.9168 85.814 27.1976Z" fill="#455A64"/>
</svg>
