<svg width="58" height="58" viewBox="0 0 58 58" fill="none" xmlns="http://www.w3.org/2000/svg">
<rect width="58" height="58" rx="8" fill="#1797B0"/>
<path d="M37.4545 11H21.5455C19.0348 11 17 13.0704 17 15.625V43.375C17 45.9296 19.0348 48 21.5455 48H37.4545C39.9652 48 42 45.9296 42 43.375V15.625C42 13.0704 39.9616 11 37.4545 11ZM29.5 45.6875C28.2393 45.6875 27.2273 44.6577 27.2273 43.375C27.2273 42.0923 28.2393 41.0625 29.5 41.0625C30.7607 41.0625 31.7727 42.0923 31.7727 43.375C31.7727 44.6577 30.7642 45.6875 29.5 45.6875ZM37.4545 15.625V38.75H21.5455V15.625H37.4545Z" fill="white"/>
</svg>
