<svg width="52" height="52" viewBox="0 0 52 52" fill="none" xmlns="http://www.w3.org/2000/svg">
<rect width="52" height="52" rx="8" fill="#1797B0"/>
<path d="M41.4122 27.4128L35.4122 33.4128C35.0247 33.8066 34.5122 34.0003 33.9997 34.0003C33.4872 34.0003 32.9759 33.805 32.5859 33.4144C31.8047 32.6331 31.8047 31.3675 32.5859 30.5863L35.1747 28.0003H16.8309L19.4172 30.5866C20.1984 31.3678 20.1984 32.6334 19.4172 33.4147C19.0247 33.8066 18.5122 34.0003 17.9997 34.0003C17.4872 34.0003 16.9759 33.805 16.5859 33.4144L10.5859 27.4144C9.80469 26.6331 9.80469 25.3675 10.5859 24.5863L16.5859 18.5863C17.3672 17.805 18.6328 17.805 19.4141 18.5863C20.1953 19.3675 20.1953 20.6331 19.4141 21.4144L16.8309 24.0003H35.1747L32.5884 21.4141C31.8072 20.6328 31.8072 19.3672 32.5884 18.5859C33.3697 17.8047 34.6353 17.8047 35.4166 18.5859L41.4166 24.5859C42.1934 25.3691 42.1934 26.6316 41.4122 27.4128Z" fill="white"/>
</svg>
