<svg width="58" height="58" viewBox="0 0 58 58" fill="none" xmlns="http://www.w3.org/2000/svg">
<rect width="58" height="58" rx="8" fill="#1797B0"/>
<path d="M24.5 15.75C24.5 13.6789 26.1797 12 28.25 12H30.75C32.8203 12 34.5 13.6789 34.5 15.75V43.25C34.5 45.3203 32.8203 47 30.75 47H28.25C26.1797 47 24.5 45.3203 24.5 43.25V15.75ZM12 30.75C12 28.6797 13.6789 27 15.75 27H18.25C20.3203 27 22 28.6797 22 30.75V43.25C22 45.3203 20.3203 47 18.25 47H15.75C13.6789 47 12 45.3203 12 43.25V30.75ZM43.25 17C45.3203 17 47 18.6797 47 20.75V43.25C47 45.3203 45.3203 47 43.25 47H40.75C38.6797 47 37 45.3203 37 43.25V20.75C37 18.6797 38.6797 17 40.75 17H43.25Z" fill="white"/>
</svg>
